<svg width="716" height="715" viewBox="0 0 716 715" fill="none" xmlns="http://www.w3.org/2000/svg">
<mask id="path-1-outside-1_254_5" maskUnits="userSpaceOnUse" x="-0.683228" y="0" width="716" height="715" fill="black">
<rect fill="white" x="-0.683228" width="716" height="715"/>
<path d="M137.358 292.347L58.303 58.5727V244.199C58.303 261.272 59.6608 271.926 62.3764 276.161C66.0979 281.897 71.9817 284.766 80.0281 284.766H87.2698V292.347H16.0597V284.766H23.3014C31.9512 284.766 38.0866 281.214 41.7074 274.112C43.9201 269.741 45.0265 259.77 45.0265 244.199V62.6704C45.0265 50.3773 44.0207 41.4989 42.0091 36.0353C40.601 32.0742 37.986 28.7961 34.164 26.2009C30.4425 23.4691 24.4078 22.1032 16.0597 22.1032V14.5224H73.9933L148.221 231.905L221.241 14.5224H279.175V22.1032H272.084C263.334 22.1032 257.148 25.6545 253.527 32.7572C251.314 37.1281 250.208 47.0991 250.208 62.6704V244.199C250.208 261.272 251.616 271.926 254.432 276.161C258.154 281.897 264.038 284.766 272.084 284.766H279.175V292.347H192.274V284.766H199.516C208.267 284.766 214.402 281.214 217.922 274.112C220.135 269.741 221.241 259.77 221.241 244.199V58.5727L142.337 292.347H137.358Z"/>
<path d="M364.5 265.302C350.319 280.19 341.417 288.795 337.797 291.117C332.365 294.532 326.582 296.239 320.447 296.239C310.892 296.239 302.996 291.8 296.76 282.922C290.625 274.043 287.557 262.365 287.557 247.886C287.557 238.735 289.066 230.813 292.083 224.12C296.207 214.832 303.348 206.09 313.507 197.895C323.766 189.699 340.764 179.728 364.5 167.981V160.605C364.5 141.893 362.288 129.053 357.862 122.087C353.537 115.121 347.201 111.638 338.853 111.638C332.516 111.638 327.487 113.96 323.766 118.604C319.944 123.248 318.033 128.575 318.033 134.585L318.334 146.468C318.334 152.752 317.127 157.6 314.714 161.015C312.4 164.43 309.333 166.137 305.511 166.137C301.789 166.137 298.721 164.362 296.308 160.81C293.994 157.259 292.838 152.41 292.838 146.264C292.838 134.517 297.263 123.726 306.114 113.892C314.965 104.057 327.387 99.1399 343.379 99.1399C355.649 99.1399 365.707 101.94 373.552 107.54C379.487 111.775 383.862 118.399 386.678 127.414C388.488 133.287 389.394 145.307 389.394 163.474V227.193C389.394 245.086 389.645 256.082 390.148 260.18C390.651 264.141 391.456 266.804 392.562 268.17C393.769 269.536 395.127 270.219 396.635 270.219C398.245 270.219 399.653 269.741 400.86 268.785C402.972 267.009 407.045 262.024 413.08 253.828V265.302C401.815 285.79 391.053 296.034 380.794 296.034C375.866 296.034 371.943 293.712 369.026 289.068C366.11 284.424 364.601 276.502 364.5 265.302ZM364.5 251.984V180.479C349.313 188.675 339.506 194.48 335.081 197.895C327.135 203.904 321.452 210.188 318.033 216.744C314.613 223.3 312.903 230.471 312.903 238.257C312.903 248.091 315.066 256.287 319.391 262.843C323.715 269.263 328.694 272.473 334.327 272.473C341.971 272.473 352.028 265.643 364.5 251.984Z"/>
<path d="M461.744 1V249.935C461.744 261.682 462.348 269.468 463.555 273.292C464.862 277.117 466.824 280.053 469.439 282.102C472.054 284.015 476.932 284.971 484.073 284.971V292.347H416.333V284.971C422.669 284.971 426.994 284.083 429.308 282.307C431.621 280.532 433.431 277.595 434.739 273.497C436.046 269.399 436.7 261.545 436.7 249.935V79.471C436.7 58.2995 436.348 45.3235 435.644 40.5428C434.94 35.6256 433.783 32.2791 432.174 30.5034C430.665 28.7278 428.704 27.8399 426.29 27.8399C423.675 27.8399 420.356 28.9327 416.333 31.1181L413.768 23.9471L454.955 1H461.744Z"/>
<path d="M526.099 1C530.323 1 533.894 3.04885 536.811 7.14655C539.828 11.1077 541.337 15.9566 541.337 21.6934C541.337 27.4302 539.828 32.3474 536.811 36.4451C533.894 40.5428 530.323 42.5917 526.099 42.5917C521.875 42.5917 518.254 40.5428 515.236 36.4451C512.219 32.3474 510.71 27.4302 510.71 21.6934C510.71 15.9566 512.169 11.1077 515.085 7.14655C518.103 3.04885 521.774 1 526.099 1ZM538.621 99.1399V249.935C538.621 261.682 539.224 269.536 540.431 273.497C541.739 277.322 543.6 280.19 546.014 282.102C548.528 284.015 553.054 284.971 559.592 284.971V292.347H492.455V284.971C499.194 284.971 503.72 284.083 506.033 282.307C508.347 280.532 510.157 277.595 511.465 273.497C512.873 269.399 513.577 261.545 513.577 249.935V177.611C513.577 157.259 513.124 144.078 512.219 138.068C511.515 133.697 510.409 130.692 508.9 129.053C507.391 127.277 505.329 126.39 502.714 126.39C499.898 126.39 496.478 127.414 492.455 129.463L490.343 122.087L531.983 99.1399H538.621Z"/>
<path d="M608.558 1V187.855L643.71 144.215C651.153 134.927 655.478 129.053 656.685 126.595C657.49 124.955 657.892 123.316 657.892 121.677C657.892 118.945 657.037 116.623 655.327 114.711C653.718 112.662 651.002 111.501 647.18 111.228V104.672H707.226V111.228C698.978 111.501 692.089 113.209 686.557 116.35C681.126 119.492 675.141 125.092 668.604 133.151L633.149 177.611L668.604 238.462C678.46 255.262 685.099 265.916 688.518 270.424C693.346 276.844 697.57 281.01 701.191 282.922C703.706 284.288 708.081 284.971 714.317 284.971V292.347H647.18V284.971C651.002 284.834 653.567 284.083 654.874 282.717C656.283 281.214 656.987 279.166 656.987 276.57C656.987 273.429 654.975 268.375 650.952 261.409L608.558 187.855V250.14C608.558 262.297 609.161 270.287 610.368 274.112C611.676 277.936 613.486 280.668 615.799 282.307C618.113 283.946 623.142 284.834 630.886 284.971V292.347H560.581V284.971C567.622 284.971 572.902 283.81 576.423 281.488C578.535 279.985 580.144 277.663 581.251 274.522C582.759 270.014 583.514 262.228 583.514 251.165V80.2905C583.514 58.5727 583.162 45.3235 582.457 40.5428C581.753 35.6256 580.597 32.2791 578.987 30.5034C577.378 28.5912 575.266 27.6351 572.651 27.6351C570.539 27.6351 567.371 28.7961 563.146 31.1181L560.581 23.9471L601.618 1H608.558Z"/>
<path d="M152.94 623.441H1.31677L3.42894 615.86C11.4753 615.587 16.8563 614.699 19.5719 613.197C23.7962 610.738 26.9142 607.528 28.9258 603.567C32.0437 597.284 35.3628 585.947 38.8831 569.556L74.9408 400.526C77.9581 386.594 79.4668 376.349 79.4668 369.793C79.4668 364.603 78.0587 360.573 75.2425 357.705C72.5269 354.836 67.347 353.402 59.703 353.402C57.9932 353.402 56.6353 353.334 55.6295 353.197L57.44 345.617H140.87L139.663 353.197C130.31 353.197 123.671 354.427 119.749 356.885C115.826 359.344 112.557 363.373 109.942 368.974C108.132 372.661 105.165 384.135 101.041 403.394L65.5869 569.556C62.8713 582.122 61.5134 590.864 61.5134 595.781C61.5134 599.059 62.8713 602.201 65.5869 605.206C67.2967 607.255 71.169 608.279 77.2038 608.279H96.9676C111.35 608.279 122.766 605.821 131.215 600.903C137.451 597.215 143.184 591.684 148.414 584.308C151.23 580.21 156.209 570.034 163.35 553.78L167.272 544.56H172.855L152.94 623.441Z"/>
<path d="M318.98 438.02L289.561 576.932L286.242 595.576C285.94 597.352 285.789 598.855 285.789 600.084C285.789 602.269 286.292 604.182 287.298 605.821C288.102 607.05 289.108 607.665 290.315 607.665C291.623 607.665 293.332 606.572 295.445 604.386C299.367 600.425 304.597 592.23 311.135 579.8L316.264 584.718C309.325 598.923 302.183 609.782 294.841 617.294C287.499 624.67 280.71 628.358 274.474 628.358C270.149 628.358 266.88 626.856 264.667 623.851C262.555 620.982 261.499 616.748 261.499 611.148C261.499 604.455 262.605 595.645 264.818 584.718L267.986 569.351C254.811 592.708 242.691 609.031 231.627 618.319C223.681 625.012 215.886 628.358 208.242 628.358C200.9 628.358 194.564 624.26 189.233 616.065C183.902 607.733 181.237 596.328 181.237 581.849C181.237 560.131 186.014 537.252 195.569 513.213C205.225 489.036 217.445 469.709 232.231 455.23C243.797 443.757 254.71 438.02 264.969 438.02C271.104 438.02 276.184 440.205 280.207 444.576C284.331 448.947 287.449 456.186 289.561 466.294L294.992 442.937L318.98 438.02ZM265.271 448.674C258.834 448.674 251.994 452.772 244.753 460.967C234.494 472.577 225.341 489.787 217.295 512.598C209.349 535.409 205.376 556.034 205.376 574.473C205.376 583.761 207.086 591.137 210.505 596.601C213.925 601.928 217.848 604.591 222.273 604.591C233.236 604.591 245.155 593.596 258.029 571.605C275.228 542.375 283.828 512.393 283.828 481.66C283.828 470.05 282.168 461.65 278.849 456.459C275.53 451.269 271.004 448.674 265.271 448.674Z"/>
<path d="M388.313 356.68C392.538 356.68 396.108 358.661 399.025 362.622C401.942 366.583 403.4 371.432 403.4 377.169C403.4 382.769 401.892 387.618 398.874 391.716C395.957 395.677 392.437 397.657 388.313 397.657C384.19 397.657 380.619 395.677 377.602 391.716C374.685 387.618 373.227 382.769 373.227 377.169C373.227 371.432 374.685 366.583 377.602 362.622C380.519 358.661 384.089 356.68 388.313 356.68ZM390.275 438.02L360.403 581.644C358.391 591.342 357.385 597.147 357.385 599.059C357.385 601.245 357.838 603.021 358.743 604.386C359.749 605.752 360.906 606.435 362.213 606.435C363.722 606.435 365.532 605.343 367.644 603.157C373.377 597.011 379.161 588.269 384.994 576.932L390.275 581.644C383.435 595.85 375.389 607.801 366.136 617.499C359.296 624.738 352.759 628.358 346.523 628.358C342.399 628.358 339.03 626.719 336.415 623.441C333.799 620.026 332.492 615.792 332.492 610.738C332.492 605.684 333.749 597.284 336.264 585.537L355.877 493.749C359.095 478.724 360.704 469.299 360.704 465.474C360.704 462.469 359.9 460.011 358.291 458.099C356.782 456.186 354.67 455.23 351.954 455.23C349.741 455.23 345.165 455.981 338.225 457.484V449.493L390.275 438.02Z"/>
<path d="M464.134 438.02L444.068 531.243C462.877 493.134 477.26 468.07 487.217 456.05C497.275 444.03 506.93 438.02 516.184 438.02C521.213 438.02 525.336 440.274 528.555 444.781C531.874 449.288 533.534 455.162 533.534 462.401C533.534 470.597 532.075 481.524 529.158 495.183L510.752 581.439C508.64 591.41 507.584 597.489 507.584 599.674C507.584 601.586 507.987 603.225 508.791 604.591C509.596 605.821 510.451 606.435 511.356 606.435C512.563 606.435 514.021 605.547 515.731 603.772C521.062 598.035 526.895 589.293 533.232 577.547L537.909 581.439C528.555 599.606 519.704 612.582 511.356 620.368C505.522 625.695 500.292 628.358 495.666 628.358C491.944 628.358 488.977 626.787 486.764 623.646C484.552 620.641 483.445 616.543 483.445 611.353C483.445 604.796 485.155 593.528 488.575 577.547L506.076 495.183C508.288 484.938 509.395 476.948 509.395 471.211C509.395 468.479 508.741 466.294 507.433 464.655C506.126 462.879 504.517 461.991 502.606 461.991C499.789 461.991 496.42 463.63 492.497 466.909C485.054 473.055 477.31 483.231 469.264 497.436C461.217 511.505 452.718 529.535 443.767 551.526C439.04 563.136 435.117 575.839 431.999 589.635L424.456 623.441H401.825L429.283 495.183C432.502 479.748 434.111 470.46 434.111 467.318C434.111 464.313 433.206 461.718 431.395 459.533C429.686 457.211 427.523 456.05 424.908 456.05C423.701 456.05 421.589 456.323 418.572 456.869L412.839 458.099L411.933 450.723L464.134 438.02Z"/>
<path d="M702.139 450.723L697.763 472.031H672.568C674.479 479.407 675.435 486.304 675.435 492.724C675.435 510.754 669.802 526.803 658.538 540.872C647.172 554.941 631.582 562.727 611.768 564.229C601.107 568.6 593.111 573.79 587.78 579.8C585.768 581.986 584.763 584.239 584.763 586.561C584.763 589.293 585.668 591.82 587.478 594.142C589.289 596.328 593.865 598.581 601.207 600.903L630.476 610.123C646.669 615.314 657.381 621.46 662.611 628.563C667.741 635.802 670.305 644.134 670.305 653.559C670.305 664.759 667.238 675.004 661.102 684.292C655.068 693.58 646.166 700.819 634.399 706.009C622.731 711.336 609.807 714 595.625 714C583.153 714 571.788 711.951 561.529 707.853C551.27 703.892 543.928 698.497 539.502 691.668C535.077 684.838 532.864 677.804 532.864 670.564C532.864 664.691 534.322 658.544 537.239 652.125C540.055 645.842 543.626 640.651 547.951 636.553C550.666 633.958 558.361 627.812 571.034 618.114C566.407 613.197 564.094 607.801 564.094 601.928C564.094 596.464 566.105 590.659 570.128 584.513C574.252 578.366 582.902 571.605 596.078 564.229C585.014 561.361 576.213 555.077 569.676 545.38C563.239 535.682 560.02 524.891 560.02 513.008C560.02 493.612 566.256 476.265 578.728 460.967C591.3 445.669 607.997 438.02 628.816 438.02C636.36 438.02 642.545 439.044 647.373 441.093C652.201 443.142 656.878 446.352 661.404 450.723H702.139ZM649.787 482.89C649.787 471.962 647.524 463.357 642.998 457.074C638.573 450.791 632.739 447.649 625.497 447.649C614.132 447.649 604.728 455.435 597.285 471.006C589.943 486.441 586.271 502.559 586.271 519.359C586.271 529.877 588.635 538.482 593.362 545.175C598.089 551.868 603.822 555.214 610.561 555.214C615.892 555.214 621.022 553.234 625.95 549.272C630.979 545.311 635.203 539.848 638.623 532.882C642.043 525.915 644.758 517.037 646.77 506.247C648.781 495.456 649.787 487.67 649.787 482.89ZM577.521 623.441C569.374 628.495 563.188 634.983 558.964 642.905C554.84 650.827 552.779 658.613 552.779 666.262C552.779 675.277 555.796 682.721 561.831 688.594C570.48 697.063 583.153 701.297 599.85 701.297C614.232 701.297 626.503 697.951 636.662 691.258C646.921 684.701 652.05 676.165 652.05 665.647C652.05 660.32 650.139 655.266 646.317 650.486C642.596 645.705 635.304 641.812 624.441 638.807C618.507 637.168 602.867 632.046 577.521 623.441Z"/>
</mask>
<path d="M137.358 292.347L58.303 58.5727V244.199C58.303 261.272 59.6608 271.926 62.3764 276.161C66.0979 281.897 71.9817 284.766 80.0281 284.766H87.2698V292.347H16.0597V284.766H23.3014C31.9512 284.766 38.0866 281.214 41.7074 274.112C43.9201 269.741 45.0265 259.77 45.0265 244.199V62.6704C45.0265 50.3773 44.0207 41.4989 42.0091 36.0353C40.601 32.0742 37.986 28.7961 34.164 26.2009C30.4425 23.4691 24.4078 22.1032 16.0597 22.1032V14.5224H73.9933L148.221 231.905L221.241 14.5224H279.175V22.1032H272.084C263.334 22.1032 257.148 25.6545 253.527 32.7572C251.314 37.1281 250.208 47.0991 250.208 62.6704V244.199C250.208 261.272 251.616 271.926 254.432 276.161C258.154 281.897 264.038 284.766 272.084 284.766H279.175V292.347H192.274V284.766H199.516C208.267 284.766 214.402 281.214 217.922 274.112C220.135 269.741 221.241 259.77 221.241 244.199V58.5727L142.337 292.347H137.358Z" fill="white"/>
<path d="M364.5 265.302C350.319 280.19 341.417 288.795 337.797 291.117C332.365 294.532 326.582 296.239 320.447 296.239C310.892 296.239 302.996 291.8 296.76 282.922C290.625 274.043 287.557 262.365 287.557 247.886C287.557 238.735 289.066 230.813 292.083 224.12C296.207 214.832 303.348 206.09 313.507 197.895C323.766 189.699 340.764 179.728 364.5 167.981V160.605C364.5 141.893 362.288 129.053 357.862 122.087C353.537 115.121 347.201 111.638 338.853 111.638C332.516 111.638 327.487 113.96 323.766 118.604C319.944 123.248 318.033 128.575 318.033 134.585L318.334 146.468C318.334 152.752 317.127 157.6 314.714 161.015C312.4 164.43 309.333 166.137 305.511 166.137C301.789 166.137 298.721 164.362 296.308 160.81C293.994 157.259 292.838 152.41 292.838 146.264C292.838 134.517 297.263 123.726 306.114 113.892C314.965 104.057 327.387 99.1399 343.379 99.1399C355.649 99.1399 365.707 101.94 373.552 107.54C379.487 111.775 383.862 118.399 386.678 127.414C388.488 133.287 389.394 145.307 389.394 163.474V227.193C389.394 245.086 389.645 256.082 390.148 260.18C390.651 264.141 391.456 266.804 392.562 268.17C393.769 269.536 395.127 270.219 396.635 270.219C398.245 270.219 399.653 269.741 400.86 268.785C402.972 267.009 407.045 262.024 413.08 253.828V265.302C401.815 285.79 391.053 296.034 380.794 296.034C375.866 296.034 371.943 293.712 369.026 289.068C366.11 284.424 364.601 276.502 364.5 265.302ZM364.5 251.984V180.479C349.313 188.675 339.506 194.48 335.081 197.895C327.135 203.904 321.452 210.188 318.033 216.744C314.613 223.3 312.903 230.471 312.903 238.257C312.903 248.091 315.066 256.287 319.391 262.843C323.715 269.263 328.694 272.473 334.327 272.473C341.971 272.473 352.028 265.643 364.5 251.984Z" fill="white"/>
<path d="M461.744 1V249.935C461.744 261.682 462.348 269.468 463.555 273.292C464.862 277.117 466.824 280.053 469.439 282.102C472.054 284.015 476.932 284.971 484.073 284.971V292.347H416.333V284.971C422.669 284.971 426.994 284.083 429.308 282.307C431.621 280.532 433.431 277.595 434.739 273.497C436.046 269.399 436.7 261.545 436.7 249.935V79.471C436.7 58.2995 436.348 45.3235 435.644 40.5428C434.94 35.6256 433.783 32.2791 432.174 30.5034C430.665 28.7278 428.704 27.8399 426.29 27.8399C423.675 27.8399 420.356 28.9327 416.333 31.1181L413.768 23.9471L454.955 1H461.744Z" fill="white"/>
<path d="M526.099 1C530.323 1 533.894 3.04885 536.811 7.14655C539.828 11.1077 541.337 15.9566 541.337 21.6934C541.337 27.4302 539.828 32.3474 536.811 36.4451C533.894 40.5428 530.323 42.5917 526.099 42.5917C521.875 42.5917 518.254 40.5428 515.236 36.4451C512.219 32.3474 510.71 27.4302 510.71 21.6934C510.71 15.9566 512.169 11.1077 515.085 7.14655C518.103 3.04885 521.774 1 526.099 1ZM538.621 99.1399V249.935C538.621 261.682 539.224 269.536 540.431 273.497C541.739 277.322 543.6 280.19 546.014 282.102C548.528 284.015 553.054 284.971 559.592 284.971V292.347H492.455V284.971C499.194 284.971 503.72 284.083 506.033 282.307C508.347 280.532 510.157 277.595 511.465 273.497C512.873 269.399 513.577 261.545 513.577 249.935V177.611C513.577 157.259 513.124 144.078 512.219 138.068C511.515 133.697 510.409 130.692 508.9 129.053C507.391 127.277 505.329 126.39 502.714 126.39C499.898 126.39 496.478 127.414 492.455 129.463L490.343 122.087L531.983 99.1399H538.621Z" fill="white"/>
<path d="M608.558 1V187.855L643.71 144.215C651.153 134.927 655.478 129.053 656.685 126.595C657.49 124.955 657.892 123.316 657.892 121.677C657.892 118.945 657.037 116.623 655.327 114.711C653.718 112.662 651.002 111.501 647.18 111.228V104.672H707.226V111.228C698.978 111.501 692.089 113.209 686.557 116.35C681.126 119.492 675.141 125.092 668.604 133.151L633.149 177.611L668.604 238.462C678.46 255.262 685.099 265.916 688.518 270.424C693.346 276.844 697.57 281.01 701.191 282.922C703.706 284.288 708.081 284.971 714.317 284.971V292.347H647.18V284.971C651.002 284.834 653.567 284.083 654.874 282.717C656.283 281.214 656.987 279.166 656.987 276.57C656.987 273.429 654.975 268.375 650.952 261.409L608.558 187.855V250.14C608.558 262.297 609.161 270.287 610.368 274.112C611.676 277.936 613.486 280.668 615.799 282.307C618.113 283.946 623.142 284.834 630.886 284.971V292.347H560.581V284.971C567.622 284.971 572.902 283.81 576.423 281.488C578.535 279.985 580.144 277.663 581.251 274.522C582.759 270.014 583.514 262.228 583.514 251.165V80.2905C583.514 58.5727 583.162 45.3235 582.457 40.5428C581.753 35.6256 580.597 32.2791 578.987 30.5034C577.378 28.5912 575.266 27.6351 572.651 27.6351C570.539 27.6351 567.371 28.7961 563.146 31.1181L560.581 23.9471L601.618 1H608.558Z" fill="white"/>
<path d="M152.94 623.441H1.31677L3.42894 615.86C11.4753 615.587 16.8563 614.699 19.5719 613.197C23.7962 610.738 26.9142 607.528 28.9258 603.567C32.0437 597.284 35.3628 585.947 38.8831 569.556L74.9408 400.526C77.9581 386.594 79.4668 376.349 79.4668 369.793C79.4668 364.603 78.0587 360.573 75.2425 357.705C72.5269 354.836 67.347 353.402 59.703 353.402C57.9932 353.402 56.6353 353.334 55.6295 353.197L57.44 345.617H140.87L139.663 353.197C130.31 353.197 123.671 354.427 119.749 356.885C115.826 359.344 112.557 363.373 109.942 368.974C108.132 372.661 105.165 384.135 101.041 403.394L65.5869 569.556C62.8713 582.122 61.5134 590.864 61.5134 595.781C61.5134 599.059 62.8713 602.201 65.5869 605.206C67.2967 607.255 71.169 608.279 77.2038 608.279H96.9676C111.35 608.279 122.766 605.821 131.215 600.903C137.451 597.215 143.184 591.684 148.414 584.308C151.23 580.21 156.209 570.034 163.35 553.78L167.272 544.56H172.855L152.94 623.441Z" fill="white"/>
<path d="M318.98 438.02L289.561 576.932L286.242 595.576C285.94 597.352 285.789 598.855 285.789 600.084C285.789 602.269 286.292 604.182 287.298 605.821C288.102 607.05 289.108 607.665 290.315 607.665C291.623 607.665 293.332 606.572 295.445 604.386C299.367 600.425 304.597 592.23 311.135 579.8L316.264 584.718C309.325 598.923 302.183 609.782 294.841 617.294C287.499 624.67 280.71 628.358 274.474 628.358C270.149 628.358 266.88 626.856 264.667 623.851C262.555 620.982 261.499 616.748 261.499 611.148C261.499 604.455 262.605 595.645 264.818 584.718L267.986 569.351C254.811 592.708 242.691 609.031 231.627 618.319C223.681 625.012 215.886 628.358 208.242 628.358C200.9 628.358 194.564 624.26 189.233 616.065C183.902 607.733 181.237 596.328 181.237 581.849C181.237 560.131 186.014 537.252 195.569 513.213C205.225 489.036 217.445 469.709 232.231 455.23C243.797 443.757 254.71 438.02 264.969 438.02C271.104 438.02 276.184 440.205 280.207 444.576C284.331 448.947 287.449 456.186 289.561 466.294L294.992 442.937L318.98 438.02ZM265.271 448.674C258.834 448.674 251.994 452.772 244.753 460.967C234.494 472.577 225.341 489.787 217.295 512.598C209.349 535.409 205.376 556.034 205.376 574.473C205.376 583.761 207.086 591.137 210.505 596.601C213.925 601.928 217.848 604.591 222.273 604.591C233.236 604.591 245.155 593.596 258.029 571.605C275.228 542.375 283.828 512.393 283.828 481.66C283.828 470.05 282.168 461.65 278.849 456.459C275.53 451.269 271.004 448.674 265.271 448.674Z" fill="white"/>
<path d="M388.313 356.68C392.538 356.68 396.108 358.661 399.025 362.622C401.942 366.583 403.4 371.432 403.4 377.169C403.4 382.769 401.892 387.618 398.874 391.716C395.957 395.677 392.437 397.657 388.313 397.657C384.19 397.657 380.619 395.677 377.602 391.716C374.685 387.618 373.227 382.769 373.227 377.169C373.227 371.432 374.685 366.583 377.602 362.622C380.519 358.661 384.089 356.68 388.313 356.68ZM390.275 438.02L360.403 581.644C358.391 591.342 357.385 597.147 357.385 599.059C357.385 601.245 357.838 603.021 358.743 604.386C359.749 605.752 360.906 606.435 362.213 606.435C363.722 606.435 365.532 605.343 367.644 603.157C373.377 597.011 379.161 588.269 384.994 576.932L390.275 581.644C383.435 595.85 375.389 607.801 366.136 617.499C359.296 624.738 352.759 628.358 346.523 628.358C342.399 628.358 339.03 626.719 336.415 623.441C333.799 620.026 332.492 615.792 332.492 610.738C332.492 605.684 333.749 597.284 336.264 585.537L355.877 493.749C359.095 478.724 360.704 469.299 360.704 465.474C360.704 462.469 359.9 460.011 358.291 458.099C356.782 456.186 354.67 455.23 351.954 455.23C349.741 455.23 345.165 455.981 338.225 457.484V449.493L390.275 438.02Z" fill="white"/>
<path d="M464.134 438.02L444.068 531.243C462.877 493.134 477.26 468.07 487.217 456.05C497.275 444.03 506.93 438.02 516.184 438.02C521.213 438.02 525.336 440.274 528.555 444.781C531.874 449.288 533.534 455.162 533.534 462.401C533.534 470.597 532.075 481.524 529.158 495.183L510.752 581.439C508.64 591.41 507.584 597.489 507.584 599.674C507.584 601.586 507.987 603.225 508.791 604.591C509.596 605.821 510.451 606.435 511.356 606.435C512.563 606.435 514.021 605.547 515.731 603.772C521.062 598.035 526.895 589.293 533.232 577.547L537.909 581.439C528.555 599.606 519.704 612.582 511.356 620.368C505.522 625.695 500.292 628.358 495.666 628.358C491.944 628.358 488.977 626.787 486.764 623.646C484.552 620.641 483.445 616.543 483.445 611.353C483.445 604.796 485.155 593.528 488.575 577.547L506.076 495.183C508.288 484.938 509.395 476.948 509.395 471.211C509.395 468.479 508.741 466.294 507.433 464.655C506.126 462.879 504.517 461.991 502.606 461.991C499.789 461.991 496.42 463.63 492.497 466.909C485.054 473.055 477.31 483.231 469.264 497.436C461.217 511.505 452.718 529.535 443.767 551.526C439.04 563.136 435.117 575.839 431.999 589.635L424.456 623.441H401.825L429.283 495.183C432.502 479.748 434.111 470.46 434.111 467.318C434.111 464.313 433.206 461.718 431.395 459.533C429.686 457.211 427.523 456.05 424.908 456.05C423.701 456.05 421.589 456.323 418.572 456.869L412.839 458.099L411.933 450.723L464.134 438.02Z" fill="white"/>
<path d="M702.139 450.723L697.763 472.031H672.568C674.479 479.407 675.435 486.304 675.435 492.724C675.435 510.754 669.802 526.803 658.538 540.872C647.172 554.941 631.582 562.727 611.768 564.229C601.107 568.6 593.111 573.79 587.78 579.8C585.768 581.986 584.763 584.239 584.763 586.561C584.763 589.293 585.668 591.82 587.478 594.142C589.289 596.328 593.865 598.581 601.207 600.903L630.476 610.123C646.669 615.314 657.381 621.46 662.611 628.563C667.741 635.802 670.305 644.134 670.305 653.559C670.305 664.759 667.238 675.004 661.102 684.292C655.068 693.58 646.166 700.819 634.399 706.009C622.731 711.336 609.807 714 595.625 714C583.153 714 571.788 711.951 561.529 707.853C551.27 703.892 543.928 698.497 539.502 691.668C535.077 684.838 532.864 677.804 532.864 670.564C532.864 664.691 534.322 658.544 537.239 652.125C540.055 645.842 543.626 640.651 547.951 636.553C550.666 633.958 558.361 627.812 571.034 618.114C566.407 613.197 564.094 607.801 564.094 601.928C564.094 596.464 566.105 590.659 570.128 584.513C574.252 578.366 582.902 571.605 596.078 564.229C585.014 561.361 576.213 555.077 569.676 545.38C563.239 535.682 560.02 524.891 560.02 513.008C560.02 493.612 566.256 476.265 578.728 460.967C591.3 445.669 607.997 438.02 628.816 438.02C636.36 438.02 642.545 439.044 647.373 441.093C652.201 443.142 656.878 446.352 661.404 450.723H702.139ZM649.787 482.89C649.787 471.962 647.524 463.357 642.998 457.074C638.573 450.791 632.739 447.649 625.497 447.649C614.132 447.649 604.728 455.435 597.285 471.006C589.943 486.441 586.271 502.559 586.271 519.359C586.271 529.877 588.635 538.482 593.362 545.175C598.089 551.868 603.822 555.214 610.561 555.214C615.892 555.214 621.022 553.234 625.95 549.272C630.979 545.311 635.203 539.848 638.623 532.882C642.043 525.915 644.758 517.037 646.77 506.247C648.781 495.456 649.787 487.67 649.787 482.89ZM577.521 623.441C569.374 628.495 563.188 634.983 558.964 642.905C554.84 650.827 552.779 658.613 552.779 666.262C552.779 675.277 555.796 682.721 561.831 688.594C570.48 697.063 583.153 701.297 599.85 701.297C614.232 701.297 626.503 697.951 636.662 691.258C646.921 684.701 652.05 676.165 652.05 665.647C652.05 660.32 650.139 655.266 646.317 650.486C642.596 645.705 635.304 641.812 624.441 638.807C618.507 637.168 602.867 632.046 577.521 623.441Z" fill="white"/>
<path d="M137.358 292.347L136.411 292.667L136.641 293.347H137.358V292.347ZM58.303 58.5727L59.2503 58.2524L57.303 58.5727H58.303ZM62.3764 276.161L61.5347 276.7L61.5375 276.705L62.3764 276.161ZM87.2698 284.766H88.2698V283.766H87.2698V284.766ZM87.2698 292.347V293.347H88.2698V292.347H87.2698ZM16.0597 292.347H15.0597V293.347H16.0597V292.347ZM16.0597 284.766V283.766H15.0597V284.766H16.0597ZM41.7074 274.112L42.5983 274.566L42.5996 274.563L41.7074 274.112ZM42.0091 36.0353L41.0668 36.3703L41.0707 36.3808L42.0091 36.0353ZM34.164 26.2009L33.5722 27.007L33.587 27.0178L33.6022 27.0282L34.164 26.2009ZM16.0597 22.1032H15.0597V23.1032H16.0597V22.1032ZM16.0597 14.5224V13.5224H15.0597V14.5224H16.0597ZM73.9933 14.5224L74.9397 14.1993L74.7086 13.5224H73.9933V14.5224ZM148.221 231.905L147.274 232.229L148.229 235.023L149.169 232.224L148.221 231.905ZM221.241 14.5224V13.5224H220.522L220.293 14.204L221.241 14.5224ZM279.175 14.5224H280.175V13.5224H279.175V14.5224ZM279.175 22.1032V23.1032H280.175V22.1032H279.175ZM253.527 32.7572L252.636 32.303L252.635 32.3055L253.527 32.7572ZM254.432 276.161L255.271 275.616L255.265 275.607L254.432 276.161ZM279.175 284.766H280.175V283.766H279.175V284.766ZM279.175 292.347V293.347H280.175V292.347H279.175ZM192.274 292.347H191.274V293.347H192.274V292.347ZM192.274 284.766V283.766H191.274V284.766H192.274ZM217.922 274.112L217.03 273.66L217.026 273.668L217.922 274.112ZM221.241 58.5727H222.241L220.294 58.2529L221.241 58.5727ZM142.337 292.347V293.347H143.055L143.284 292.666L142.337 292.347ZM364.5 265.302L365.5 265.293L365.478 262.825L363.776 264.612L364.5 265.302ZM337.797 291.117L338.329 291.964L338.336 291.959L337.797 291.117ZM296.76 282.922L295.938 283.49L295.942 283.497L296.76 282.922ZM292.083 224.12L292.995 224.531L292.997 224.526L292.083 224.12ZM313.507 197.895L312.882 197.113L312.879 197.116L313.507 197.895ZM364.5 167.981L364.944 168.878L365.5 168.602V167.981H364.5ZM357.862 122.087L357.012 122.615L357.018 122.623L357.862 122.087ZM323.766 118.604L324.538 119.24L324.546 119.229L323.766 118.604ZM318.033 134.585H317.033V134.598L317.033 134.61L318.033 134.585ZM318.334 146.468H319.334V146.456L319.334 146.443L318.334 146.468ZM314.714 161.015L313.897 160.438L313.891 160.446L313.886 160.454L314.714 161.015ZM296.308 160.81L295.47 161.356L295.475 161.364L295.481 161.372L296.308 160.81ZM373.552 107.54L372.971 108.354L372.972 108.354L373.552 107.54ZM386.678 127.414L387.634 127.12L387.633 127.116L386.678 127.414ZM390.148 260.18L389.155 260.301L389.156 260.306L390.148 260.18ZM392.562 268.17L391.785 268.8L391.798 268.816L391.813 268.832L392.562 268.17ZM400.86 268.785L401.481 269.569L401.492 269.56L401.503 269.55L400.86 268.785ZM413.08 253.828H414.08V250.784L412.275 253.235L413.08 253.828ZM413.08 265.302L413.956 265.784L414.08 265.558V265.302H413.08ZM364.5 251.984L365.239 252.658L365.5 252.372V251.984H364.5ZM364.5 180.479H365.5V178.803L364.025 179.599L364.5 180.479ZM335.081 197.895L335.684 198.692L335.692 198.686L335.081 197.895ZM319.391 262.843L318.556 263.394L318.561 263.402L319.391 262.843ZM461.744 1H462.744V0H461.744V1ZM463.555 273.292L462.601 273.593L462.605 273.605L462.609 273.616L463.555 273.292ZM469.439 282.102L468.822 282.889L468.835 282.9L468.848 282.909L469.439 282.102ZM484.073 284.971H485.073V283.971H484.073V284.971ZM484.073 292.347V293.347H485.073V292.347H484.073ZM416.333 292.347H415.333V293.347H416.333V292.347ZM416.333 284.971V283.971H415.333V284.971H416.333ZM435.644 40.5428L434.654 40.6846L434.655 40.6885L435.644 40.5428ZM432.174 30.5034L431.412 31.1509L431.422 31.1631L431.433 31.175L432.174 30.5034ZM416.333 31.1181L415.391 31.4549L415.784 32.554L416.81 31.9968L416.333 31.1181ZM413.768 23.9471L413.281 23.0736L412.541 23.486L412.826 24.2839L413.768 23.9471ZM454.955 1V0H454.695L454.469 0.126432L454.955 1ZM536.811 7.14655L535.996 7.72646L536.005 7.73964L536.015 7.75252L536.811 7.14655ZM536.811 36.4451L536.005 35.8522L536.001 35.8587L535.996 35.8652L536.811 36.4451ZM515.085 7.14655L514.28 6.5536L515.085 7.14655ZM538.621 99.1399H539.621V98.1399H538.621V99.1399ZM540.431 273.497L539.475 273.789L539.48 273.805L539.485 273.821L540.431 273.497ZM546.014 282.102L545.393 282.886L545.4 282.892L545.408 282.898L546.014 282.102ZM559.592 284.971H560.592V283.971H559.592V284.971ZM559.592 292.347V293.347H560.592V292.347H559.592ZM492.455 292.347H491.455V293.347H492.455V292.347ZM492.455 284.971V283.971H491.455V284.971H492.455ZM511.465 273.497L510.519 273.172L510.515 273.183L510.512 273.193L511.465 273.497ZM512.219 138.068L513.208 137.919L513.206 137.909L512.219 138.068ZM508.9 129.053L508.138 129.701L508.151 129.716L508.164 129.73L508.9 129.053ZM492.455 129.463L491.494 129.738L491.828 130.905L492.909 130.354L492.455 129.463ZM490.343 122.087L489.86 121.211L489.162 121.596L489.382 122.362L490.343 122.087ZM531.983 99.1399V98.1399H531.725L531.5 98.2641L531.983 99.1399ZM608.558 1H609.558V0H608.558V1ZM643.71 144.215L644.489 144.842L644.491 144.84L643.71 144.215ZM656.685 126.595L655.787 126.154L656.685 126.595ZM655.327 114.711L654.541 115.329L654.56 115.354L654.582 115.378L655.327 114.711ZM647.18 111.228H646.18V112.159L647.109 112.226L647.18 111.228ZM647.18 104.672V103.672H646.18V104.672H647.18ZM707.226 104.672H708.226V103.672H707.226V104.672ZM707.226 111.228L707.259 112.228L708.226 112.196V111.228H707.226ZM686.557 116.35L686.063 115.481L686.056 115.485L686.557 116.35ZM668.604 133.151L667.827 132.521L667.822 132.527L668.604 133.151ZM633.149 177.611L632.367 176.987L631.941 177.523L632.285 178.114L633.149 177.611ZM668.604 238.462L667.739 238.965L667.741 238.968L668.604 238.462ZM688.518 270.424L689.317 269.823L689.315 269.819L688.518 270.424ZM701.191 282.922L701.669 282.043L701.658 282.038L701.191 282.922ZM714.317 284.971H715.317V283.971H714.317V284.971ZM714.317 292.347V293.347H715.317V292.347H714.317ZM647.18 292.347H646.18V293.347H647.18V292.347ZM647.18 284.971L647.144 283.971L646.18 284.006V284.971H647.18ZM654.874 282.717L655.597 283.408L655.604 283.401L654.874 282.717ZM650.952 261.409L650.085 261.908L650.086 261.909L650.952 261.409ZM610.368 274.112L609.415 274.413L609.418 274.424L609.422 274.435L610.368 274.112ZM630.886 284.971H631.886V283.988L630.904 283.971L630.886 284.971ZM630.886 292.347V293.347H631.886V292.347H630.886ZM560.581 292.347H559.581V293.347H560.581V292.347ZM560.581 284.971V283.971H559.581V284.971H560.581ZM576.423 281.488L576.973 282.322L576.988 282.313L577.002 282.302L576.423 281.488ZM581.251 274.522L582.194 274.854L582.196 274.846L582.199 274.839L581.251 274.522ZM582.457 40.5428L581.468 40.6846L581.468 40.6885L582.457 40.5428ZM578.987 30.5034L578.222 31.1473L578.234 31.1614L578.247 31.175L578.987 30.5034ZM563.146 31.1181L562.205 31.4549L562.6 32.5596L563.628 31.9944L563.146 31.1181ZM560.581 23.9471L560.093 23.0743L559.355 23.4873L559.64 24.2839L560.581 23.9471ZM601.618 1V0H601.357L601.13 0.127193L601.618 1ZM152.94 623.441V624.441H153.719L153.91 623.686L152.94 623.441ZM1.31677 623.441L0.353465 623.172L6.06638e-05 624.441H1.31677V623.441ZM3.42894 615.86L3.395 614.861L2.66238 614.885L2.46563 615.592L3.42894 615.86ZM19.5719 613.197L20.056 614.072L20.0655 614.066L20.0749 614.061L19.5719 613.197ZM28.9258 603.567L29.8174 604.02L29.8215 604.011L28.9258 603.567ZM38.8831 569.556L39.8608 569.766L39.8611 569.765L38.8831 569.556ZM74.9408 400.526L73.9634 400.314L73.9628 400.317L74.9408 400.526ZM75.2425 357.705L74.5163 358.392L74.5226 358.399L74.5289 358.405L75.2425 357.705ZM55.6295 353.197L54.6569 352.965L54.4003 354.04L55.495 354.188L55.6295 353.197ZM57.44 345.617V344.617H56.6507L56.4673 345.384L57.44 345.617ZM140.87 345.617L141.858 345.774L142.042 344.617H140.87V345.617ZM139.663 353.197V354.197H140.517L140.651 353.355L139.663 353.197ZM109.942 368.974L110.84 369.414L110.844 369.405L110.848 369.397L109.942 368.974ZM101.041 403.394L100.063 403.185L100.063 403.186L101.041 403.394ZM65.5869 569.556L66.5643 569.767L66.5649 569.765L65.5869 569.556ZM65.5869 605.206L66.3547 604.565L66.342 604.55L66.3288 604.536L65.5869 605.206ZM131.215 600.903L131.718 601.768L131.724 601.764L131.215 600.903ZM148.414 584.308L149.23 584.886L149.234 584.88L149.238 584.874L148.414 584.308ZM163.35 553.78L164.265 554.182L164.27 554.171L163.35 553.78ZM167.272 544.56V543.56H166.611L166.352 544.169L167.272 544.56ZM172.855 544.56L173.824 544.805L174.138 543.56H172.855V544.56ZM318.98 438.02L319.958 438.227L320.275 436.734L318.779 437.04L318.98 438.02ZM289.561 576.932L288.582 576.725L288.579 576.741L288.576 576.757L289.561 576.932ZM286.242 595.576L285.257 595.401L285.256 595.409L286.242 595.576ZM287.298 605.821L286.445 606.344L286.453 606.356L286.461 606.368L287.298 605.821ZM295.445 604.386L294.734 603.683L294.726 603.692L295.445 604.386ZM311.135 579.8L311.827 579.078L310.868 578.159L310.25 579.335L311.135 579.8ZM316.264 584.718L317.163 585.156L317.483 584.501L316.957 583.996L316.264 584.718ZM294.841 617.294L295.55 618L295.556 617.993L294.841 617.294ZM264.667 623.851L265.473 623.258L264.667 623.851ZM264.818 584.718L263.839 584.516L263.838 584.519L264.818 584.718ZM267.986 569.351L268.966 569.553L267.115 568.86L267.986 569.351ZM231.627 618.319L230.984 617.553L230.983 617.554L231.627 618.319ZM189.233 616.065L188.391 616.604L188.395 616.61L189.233 616.065ZM195.569 513.213L194.641 512.842L194.64 512.843L195.569 513.213ZM232.231 455.23L232.93 455.945L232.935 455.94L232.231 455.23ZM280.207 444.576L279.471 445.253L279.479 445.262L280.207 444.576ZM289.561 466.294L288.582 466.498L290.535 466.52L289.561 466.294ZM294.992 442.937L294.791 441.957L294.163 442.086L294.018 442.711L294.992 442.937ZM244.753 460.967L244.003 460.305L244.003 460.305L244.753 460.967ZM217.295 512.598L216.351 512.265L216.35 512.269L217.295 512.598ZM210.505 596.601L209.658 597.131L209.664 597.141L210.505 596.601ZM258.029 571.605L257.167 571.098L257.166 571.1L258.029 571.605ZM398.874 391.716L398.069 391.123L398.874 391.716ZM377.602 391.716L376.787 392.296L376.796 392.309L376.806 392.322L377.602 391.716ZM390.275 438.02L391.254 438.223L391.568 436.711L390.059 437.043L390.275 438.02ZM360.403 581.644L359.424 581.441L359.424 581.441L360.403 581.644ZM358.743 604.386L357.91 604.939L357.923 604.96L357.938 604.979L358.743 604.386ZM367.644 603.157L368.363 603.852L368.37 603.846L368.376 603.839L367.644 603.157ZM384.994 576.932L385.66 576.186L384.696 575.326L384.105 576.474L384.994 576.932ZM390.275 581.644L391.176 582.078L391.502 581.4L390.941 580.898L390.275 581.644ZM366.136 617.499L365.412 616.809L365.409 616.812L366.136 617.499ZM336.415 623.441L335.621 624.049L335.627 624.057L335.633 624.064L336.415 623.441ZM336.264 585.537L337.242 585.746L337.242 585.746L336.264 585.537ZM355.877 493.749L354.899 493.539L354.899 493.54L355.877 493.749ZM358.291 458.099L357.505 458.718L357.515 458.73L357.525 458.742L358.291 458.099ZM338.225 457.484H337.225V458.724L338.437 458.461L338.225 457.484ZM338.225 449.493L338.01 448.517L337.225 448.69V449.493H338.225ZM464.134 438.02L465.112 438.23L465.447 436.671L463.898 437.048L464.134 438.02ZM444.068 531.243L443.091 531.032L444.965 531.685L444.068 531.243ZM487.217 456.05L486.45 455.408L486.447 455.412L487.217 456.05ZM528.555 444.781L527.741 445.362L527.745 445.368L527.75 445.374L528.555 444.781ZM529.158 495.183L528.181 494.974L528.18 494.974L529.158 495.183ZM510.752 581.439L509.774 581.231L509.774 581.232L510.752 581.439ZM508.791 604.591L507.93 605.099L507.942 605.119L507.954 605.139L508.791 604.591ZM515.731 603.772L516.451 604.465L516.458 604.459L516.464 604.453L515.731 603.772ZM533.232 577.547L533.872 576.778L532.932 575.996L532.352 577.072L533.232 577.547ZM537.909 581.439L538.798 581.897L539.165 581.184L538.549 580.671L537.909 581.439ZM511.356 620.368L512.03 621.106L512.038 621.099L511.356 620.368ZM486.764 623.646L487.582 623.07L487.576 623.061L487.57 623.053L486.764 623.646ZM488.575 577.547L489.553 577.756L489.553 577.754L488.575 577.547ZM506.076 495.183L505.098 494.972L505.097 494.975L506.076 495.183ZM507.433 464.655L506.628 465.248L506.64 465.263L506.652 465.278L507.433 464.655ZM492.497 466.909L493.134 467.68L493.139 467.676L492.497 466.909ZM469.264 497.436L470.132 497.933L470.134 497.929L469.264 497.436ZM443.767 551.526L444.693 551.903L444.693 551.903L443.767 551.526ZM431.999 589.635L431.024 589.414L431.023 589.417L431.999 589.635ZM424.456 623.441V624.441H425.257L425.432 623.659L424.456 623.441ZM401.825 623.441L400.847 623.231L400.588 624.441H401.825V623.441ZM429.283 495.183L430.261 495.392L430.262 495.387L429.283 495.183ZM431.395 459.533L430.59 460.126L430.607 460.149L430.625 460.171L431.395 459.533ZM418.572 456.869L418.393 455.885L418.378 455.888L418.362 455.891L418.572 456.869ZM412.839 458.099L411.846 458.22L411.979 459.306L413.048 459.076L412.839 458.099ZM411.933 450.723L411.697 449.751L410.832 449.961L410.941 450.844L411.933 450.723ZM702.139 450.723L703.118 450.924L703.365 449.723H702.139V450.723ZM697.763 472.031V473.031H698.579L698.743 472.232L697.763 472.031ZM672.568 472.031V471.031H671.276L671.6 472.282L672.568 472.031ZM658.538 540.872L659.315 541.501L659.318 541.497L658.538 540.872ZM611.768 564.229L611.693 563.232L611.535 563.244L611.389 563.304L611.768 564.229ZM587.78 579.8L588.516 580.478L588.522 580.471L588.528 580.464L587.78 579.8ZM587.478 594.142L586.69 594.757L586.699 594.769L586.708 594.78L587.478 594.142ZM601.207 600.903L600.906 601.857L600.907 601.857L601.207 600.903ZM630.476 610.123L630.781 609.171L630.776 609.169L630.476 610.123ZM662.611 628.563L663.427 627.985L663.422 627.977L663.416 627.97L662.611 628.563ZM661.102 684.292L660.268 683.74L660.264 683.747L661.102 684.292ZM634.399 706.009L633.995 705.094L633.983 705.1L634.399 706.009ZM561.529 707.853L561.9 706.925L561.889 706.921L561.529 707.853ZM537.239 652.125L538.149 652.538L538.152 652.534L537.239 652.125ZM547.951 636.553L548.638 637.279L548.642 637.276L547.951 636.553ZM571.034 618.114L571.641 618.908L572.521 618.235L571.762 617.429L571.034 618.114ZM570.128 584.513L569.298 583.955L569.292 583.965L570.128 584.513ZM596.078 564.229L596.566 565.102L598.738 563.886L596.329 563.261L596.078 564.229ZM569.676 545.38L568.843 545.933L568.847 545.939L569.676 545.38ZM578.728 460.967L577.955 460.332L577.953 460.335L578.728 460.967ZM661.404 450.723L660.709 451.442L661 451.723H661.404V450.723ZM642.998 457.074L642.18 457.65L642.187 457.659L642.998 457.074ZM597.285 471.006L596.383 470.575L596.382 470.577L597.285 471.006ZM625.95 549.272L625.331 548.487L625.323 548.493L625.95 549.272ZM646.77 506.247L647.753 506.43L646.77 506.247ZM577.521 623.441L577.842 622.494L577.395 622.342L576.994 622.591L577.521 623.441ZM558.964 642.905L558.082 642.434L558.077 642.443L558.964 642.905ZM561.831 688.594L562.53 687.88L562.528 687.878L561.831 688.594ZM636.662 691.258L636.123 690.415L636.111 690.423L636.662 691.258ZM646.317 650.486L645.528 651.1L645.536 651.11L646.317 650.486ZM624.441 638.807L624.708 637.843L624.707 637.843L624.441 638.807ZM137.358 292.347L138.306 292.026L59.2503 58.2524L58.303 58.5727L57.3557 58.893L136.411 292.667L137.358 292.347ZM58.303 58.5727H57.303V244.199H58.303H59.303V58.5727H58.303ZM58.303 244.199H57.303C57.303 252.756 57.6429 259.735 58.3294 265.121C59.0104 270.465 60.0475 274.382 61.5347 276.7L62.3764 276.161L63.2182 275.621C61.9897 273.705 60.9901 270.178 60.3133 264.868C59.6419 259.6 59.303 252.715 59.303 244.199H58.303ZM62.3764 276.161L61.5375 276.705C65.4782 282.78 71.7125 285.766 80.0281 285.766V284.766V283.766C72.251 283.766 66.7175 281.015 63.2154 275.616L62.3764 276.161ZM80.0281 284.766V285.766H87.2698V284.766V283.766H80.0281V284.766ZM87.2698 284.766H86.2698V292.347H87.2698H88.2698V284.766H87.2698ZM87.2698 292.347V291.347H16.0597V292.347V293.347H87.2698V292.347ZM16.0597 292.347H17.0597V284.766H16.0597H15.0597V292.347H16.0597ZM16.0597 284.766V285.766H23.3014V284.766V283.766H16.0597V284.766ZM23.3014 284.766V285.766C27.7637 285.766 31.6411 284.849 34.8912 282.968C38.1461 281.084 40.7116 278.267 42.5983 274.566L41.7074 274.112L40.8165 273.658C39.0824 277.059 36.7698 279.569 33.8893 281.237C31.0041 282.907 27.489 283.766 23.3014 283.766V284.766ZM41.7074 274.112L42.5996 274.563C43.7915 272.209 44.6351 268.472 45.1906 263.466C45.7495 258.429 46.0265 252.003 46.0265 244.199H45.0265H44.0265C44.0265 251.965 43.7504 258.31 43.2028 263.245C42.652 268.21 41.836 271.644 40.8152 273.66L41.7074 274.112ZM45.0265 244.199H46.0265V62.6704H45.0265H44.0265V244.199H45.0265ZM45.0265 62.6704H46.0265C46.0265 50.3608 45.0243 41.3304 42.9476 35.6898L42.0091 36.0353L41.0707 36.3808C43.0171 41.6675 44.0265 50.3938 44.0265 62.6704H45.0265ZM42.0091 36.0353L42.9514 35.7004C41.465 31.519 38.7054 28.0758 34.7257 25.3736L34.164 26.2009L33.6022 27.0282C37.2666 29.5163 39.7371 32.6295 41.0669 36.3703L42.0091 36.0353ZM34.164 26.2009L34.7557 25.3947C30.7718 22.4702 24.47 21.1032 16.0597 21.1032V22.1032V23.1032C24.3456 23.1032 30.1133 24.4679 33.5722 27.007L34.164 26.2009ZM16.0597 22.1032H17.0597V14.5224H16.0597H15.0597V22.1032H16.0597ZM16.0597 14.5224V15.5224H73.9933V14.5224V13.5224H16.0597V14.5224ZM73.9933 14.5224L73.047 14.8456L147.274 232.229L148.221 231.905L149.167 231.582L74.9397 14.1993L73.9933 14.5224ZM148.221 231.905L149.169 232.224L222.189 14.8408L221.241 14.5224L220.293 14.204L147.273 231.587L148.221 231.905ZM221.241 14.5224V15.5224H279.175V14.5224V13.5224H221.241V14.5224ZM279.175 14.5224H278.175V22.1032H279.175H280.175V14.5224H279.175ZM279.175 22.1032V21.1032H272.084V22.1032V23.1032H279.175V22.1032ZM272.084 22.1032V21.1032C267.574 21.1032 263.659 22.0191 260.384 23.8994C257.104 25.7829 254.524 28.5998 252.636 32.303L253.527 32.7572L254.418 33.2114C256.151 29.8119 258.475 27.3018 261.38 25.6339C264.29 23.9629 267.844 23.1032 272.084 23.1032V22.1032ZM253.527 32.7572L252.635 32.3055C251.443 34.6599 250.6 38.3969 250.044 43.4034C249.485 48.4397 249.208 54.8656 249.208 62.6704H250.208H251.208C251.208 54.9039 251.484 48.5587 252.032 43.6239C252.583 38.6594 253.399 35.2253 254.419 33.2088L253.527 32.7572ZM250.208 62.6704H249.208V244.199H250.208H251.208V62.6704H250.208ZM250.208 244.199H249.208C249.208 252.757 249.561 259.737 250.273 265.125C250.979 270.472 252.056 274.393 253.6 276.714L254.432 276.161L255.265 275.607C253.993 273.694 252.957 270.171 252.256 264.863C251.56 259.597 251.208 252.714 251.208 244.199H250.208ZM254.432 276.161L253.593 276.705C257.534 282.78 263.769 285.766 272.084 285.766V284.766V283.766C264.307 283.766 258.774 281.015 255.271 275.616L254.432 276.161ZM272.084 284.766V285.766H279.175V284.766V283.766H272.084V284.766ZM279.175 284.766H278.175V292.347H279.175H280.175V284.766H279.175ZM279.175 292.347V291.347H192.274V292.347V293.347H279.175V292.347ZM192.274 292.347H193.274V284.766H192.274H191.274V292.347H192.274ZM192.274 284.766V285.766H199.516V284.766V283.766H192.274V284.766ZM199.516 284.766V285.766C204.026 285.766 207.93 284.85 211.181 282.968C214.439 281.082 216.981 278.262 218.818 274.556L217.922 274.112L217.026 273.668C215.343 277.064 213.057 279.571 210.18 281.237C207.296 282.906 203.756 283.766 199.516 283.766V284.766ZM217.922 274.112L218.814 274.563C220.006 272.209 220.85 268.472 221.405 263.466C221.964 258.429 222.241 252.003 222.241 244.199H221.241H220.241C220.241 251.965 219.965 258.31 219.418 263.245C218.867 268.21 218.051 271.644 217.03 273.66L217.922 274.112ZM221.241 244.199H222.241V58.5727H221.241H220.241V244.199H221.241ZM221.241 58.5727L220.294 58.2529L141.389 292.027L142.337 292.347L143.284 292.666L222.189 58.8925L221.241 58.5727ZM142.337 292.347V291.347H137.358V292.347V293.347H142.337V292.347ZM364.5 265.302L363.776 264.612C356.69 272.052 350.93 277.914 346.493 282.203C342.032 286.515 338.97 289.177 337.257 290.275L337.797 291.117L338.336 291.959C340.244 290.736 343.443 287.934 347.883 283.641C352.348 279.325 358.129 273.44 365.224 265.991L364.5 265.302ZM337.797 291.117L337.264 290.271C331.985 293.59 326.385 295.239 320.447 295.239V296.239V297.239C326.779 297.239 332.746 295.474 338.329 291.964L337.797 291.117ZM320.447 296.239V295.239C311.265 295.239 303.657 291.001 297.579 282.347L296.76 282.922L295.942 283.497C302.336 292.6 310.518 297.239 320.447 297.239V296.239ZM296.76 282.922L297.583 282.353C291.596 273.69 288.557 262.23 288.557 247.886H287.557H286.557C286.557 262.5 289.653 274.396 295.938 283.49L296.76 282.922ZM287.557 247.886H288.557C288.557 238.843 290.048 231.067 292.995 224.531L292.083 224.12L291.172 223.709C288.084 230.559 286.557 238.627 286.557 247.886H287.557ZM292.083 224.12L292.997 224.526C297.041 215.418 304.066 206.796 314.135 198.673L313.507 197.895L312.879 197.116C302.631 205.384 295.373 214.245 291.169 223.714L292.083 224.12ZM313.507 197.895L314.131 198.676C324.302 190.55 341.22 180.618 364.944 168.878L364.5 167.981L364.057 167.085C340.307 178.838 323.229 188.848 312.882 197.113L313.507 197.895ZM364.5 167.981H365.5V160.605H364.5H363.5V167.981H364.5ZM364.5 160.605H365.5C365.5 151.214 364.945 143.266 363.826 136.771C362.709 130.288 361.019 125.191 358.706 121.551L357.862 122.087L357.018 122.623C359.131 125.949 360.76 130.755 361.855 137.111C362.949 143.456 363.5 151.284 363.5 160.605H364.5ZM357.862 122.087L358.712 121.56C354.2 114.293 347.539 110.638 338.853 110.638V111.638V112.638C346.862 112.638 352.874 115.949 357.012 122.615L357.862 122.087ZM338.853 111.638V110.638C332.235 110.638 326.91 113.081 322.985 117.979L323.766 118.604L324.546 119.229C328.064 114.839 332.797 112.638 338.853 112.638V111.638ZM323.766 118.604L322.994 117.969C319.024 122.791 317.033 128.343 317.033 134.585H318.033H319.033C319.033 128.807 320.863 123.705 324.538 119.239L323.766 118.604ZM318.033 134.585L317.033 134.61L317.335 146.494L318.334 146.468L319.334 146.443L319.032 134.56L318.033 134.585ZM318.334 146.468H317.334C317.334 152.643 316.145 157.258 313.897 160.438L314.714 161.015L315.53 161.592C318.11 157.943 319.334 152.86 319.334 146.468H318.334ZM314.714 161.015L313.886 160.454C311.741 163.62 308.971 165.137 305.511 165.137V166.137V167.137C309.694 167.137 313.06 165.24 315.541 161.576L314.714 161.015ZM305.511 166.137V165.137C302.175 165.137 299.396 163.574 297.135 160.248L296.308 160.81L295.481 161.372C298.047 165.149 301.403 167.137 305.511 167.137V166.137ZM296.308 160.81L297.146 160.265C294.976 156.933 293.838 152.299 293.838 146.264H292.838H291.838C291.838 152.521 293.013 157.585 295.47 161.356L296.308 160.81ZM292.838 146.264H293.838C293.838 134.795 298.149 124.236 306.857 114.561L306.114 113.892L305.371 113.223C296.377 123.216 291.838 134.238 291.838 146.264H292.838ZM306.114 113.892L306.857 114.561C315.48 104.98 327.606 100.14 343.379 100.14V99.1399V98.1399C327.167 98.1399 314.451 103.134 305.371 113.223L306.114 113.892ZM343.379 99.1399V100.14C355.498 100.14 365.337 102.904 372.971 108.354L373.552 107.54L374.133 106.726C366.078 100.976 355.801 98.1399 343.379 98.1399V99.1399ZM373.552 107.54L372.972 108.354C378.682 112.429 382.953 118.844 385.724 127.712L386.678 127.414L387.633 127.116C384.771 117.955 380.291 111.12 374.133 106.726L373.552 107.54ZM386.678 127.414L385.722 127.709C387.481 133.415 388.394 145.282 388.394 163.474H389.394H390.394C390.394 145.332 389.496 133.16 387.634 127.12L386.678 127.414ZM389.394 163.474H388.394V227.193H389.394H390.394V163.474H389.394ZM389.394 227.193H388.394C388.394 245.06 388.643 256.128 389.155 260.301L390.148 260.18L391.141 260.058C390.647 256.035 390.394 245.113 390.394 227.193H389.394ZM390.148 260.18L389.156 260.306C389.412 262.32 389.748 264.035 390.171 265.437C390.592 266.829 391.117 267.974 391.785 268.8L392.562 268.17L393.339 267.541C392.901 267 392.47 266.131 392.086 264.859C391.705 263.598 391.387 262.001 391.14 260.054L390.148 260.18ZM392.562 268.17L391.813 268.832C393.166 270.364 394.781 271.219 396.635 271.219V270.219V269.219C395.473 269.219 394.371 268.708 393.311 267.508L392.562 268.17ZM396.635 270.219V271.219C398.459 271.219 400.089 270.671 401.481 269.569L400.86 268.785L400.239 268.001C399.217 268.81 398.03 269.219 396.635 269.219V270.219ZM400.86 268.785L401.503 269.55C402.638 268.597 404.235 266.841 406.273 264.347C408.325 261.836 410.863 258.526 413.885 254.421L413.08 253.828L412.275 253.235C409.262 257.326 406.746 260.607 404.725 263.081C402.689 265.572 401.194 267.197 400.216 268.019L400.86 268.785ZM413.08 253.828H412.08V265.302H413.08H414.08V253.828H413.08ZM413.08 265.302L412.204 264.82C406.596 275.02 401.147 282.604 395.87 287.627C390.593 292.651 385.572 295.034 380.794 295.034V296.034V297.034C386.276 297.034 391.765 294.296 397.249 289.076C402.735 283.854 408.299 276.072 413.956 265.784L413.08 265.302ZM380.794 296.034V295.034C376.253 295.034 372.632 292.928 369.873 288.537L369.026 289.068L368.18 289.6C371.255 294.497 375.478 297.034 380.794 297.034V296.034ZM369.026 289.068L369.873 288.537C367.114 284.143 365.601 276.465 365.5 265.293L364.5 265.302L363.5 265.311C363.601 276.54 365.105 284.705 368.18 289.6L369.026 289.068ZM364.5 251.984H365.5V180.479H364.5H363.5V251.984H364.5ZM364.5 180.479L364.025 179.599C348.852 187.787 338.971 193.63 334.47 197.103L335.081 197.895L335.692 198.686C340.042 195.33 349.774 189.562 364.975 181.359L364.5 180.479ZM335.081 197.895L334.478 197.097C326.453 203.167 320.654 209.557 317.146 216.281L318.033 216.744L318.919 217.206C322.251 210.819 327.818 204.642 335.684 198.692L335.081 197.895ZM318.033 216.744L317.146 216.281C313.648 222.988 311.903 230.319 311.903 238.257H312.903H313.903C313.903 230.624 315.578 223.612 318.919 217.206L318.033 216.744ZM312.903 238.257H311.903C311.903 248.238 314.099 256.637 318.556 263.394L319.391 262.843L320.225 262.292C316.032 255.936 313.903 247.945 313.903 238.257H312.903ZM319.391 262.843L318.561 263.402C322.996 269.984 328.245 273.473 334.327 273.473V272.473V271.473C329.143 271.473 324.435 268.541 320.22 262.284L319.391 262.843ZM334.327 272.473V273.473C338.435 273.473 343.06 271.644 348.165 268.178C353.283 264.703 358.974 259.519 365.239 252.658L364.5 251.984L363.762 251.31C357.554 258.108 351.981 263.169 347.041 266.523C342.088 269.886 337.862 271.473 334.327 271.473V272.473ZM461.744 1H460.744V249.935H461.744H462.744V1H461.744ZM461.744 249.935H460.744C460.744 261.657 461.34 269.598 462.601 273.593L463.555 273.292L464.508 272.991C463.355 269.337 462.744 261.707 462.744 249.935H461.744ZM463.555 273.292L462.609 273.616C463.965 277.583 466.024 280.698 468.822 282.889L469.439 282.102L470.055 281.315C467.623 279.409 465.76 276.65 464.501 272.969L463.555 273.292ZM469.439 282.102L468.848 282.909C470.32 283.986 472.353 284.742 474.866 285.235C477.389 285.729 480.463 285.971 484.073 285.971V284.971V283.971C480.542 283.971 477.606 283.734 475.251 283.272C472.886 282.809 471.172 282.131 470.029 281.295L469.439 282.102ZM484.073 284.971H483.073V292.347H484.073H485.073V284.971H484.073ZM484.073 292.347V291.347H416.333V292.347V293.347H484.073V292.347ZM416.333 292.347H417.333V284.971H416.333H415.333V292.347H416.333ZM416.333 284.971V285.971C419.542 285.971 422.28 285.746 424.53 285.284C426.771 284.824 428.594 284.116 429.916 283.1L429.308 282.307L428.699 281.514C427.708 282.274 426.211 282.898 424.128 283.325C422.053 283.751 419.46 283.971 416.333 283.971V284.971ZM429.308 282.307L429.916 283.1C432.452 281.154 434.35 278.006 435.691 273.801L434.739 273.497L433.786 273.193C432.513 277.184 430.79 279.909 428.699 281.514L429.308 282.307ZM434.739 273.497L435.691 273.801C437.053 269.534 437.7 261.53 437.7 249.935H436.7H435.7C435.7 261.561 435.04 269.264 433.786 273.193L434.739 273.497ZM436.7 249.935H437.7V79.471H436.7H435.7V249.935H436.7ZM436.7 79.471H437.7C437.7 58.3315 437.351 45.2677 436.633 40.3971L435.644 40.5428L434.655 40.6885C435.345 45.3792 435.7 58.2675 435.7 79.471H436.7ZM435.644 40.5428L436.634 40.4011C435.926 35.4586 434.74 31.8461 432.915 29.8319L432.174 30.5034L431.433 31.175C432.826 32.7122 433.954 35.7926 434.654 40.6846L435.644 40.5428ZM432.174 30.5034L432.936 29.856C431.23 27.8476 428.985 26.8399 426.29 26.8399V27.8399V28.8399C428.423 28.8399 430.101 29.608 431.412 31.1509L432.174 30.5034ZM426.29 27.8399V26.8399C423.426 26.8399 419.93 28.026 415.855 30.2394L416.333 31.1181L416.81 31.9968C420.782 29.8394 423.924 28.8399 426.29 28.8399V27.8399ZM416.333 31.1181L417.274 30.7813L414.71 23.6104L413.768 23.9471L412.826 24.2839L415.391 31.4549L416.333 31.1181ZM413.768 23.9471L414.255 24.8207L455.442 1.87357L454.955 1L454.469 0.126432L413.281 23.0736L413.768 23.9471ZM454.955 1V2H461.744V1V0H454.955V1ZM526.099 1V2C529.935 2 533.226 3.83515 535.996 7.72646L536.811 7.14655L537.625 6.56665C534.562 2.26255 530.711 0 526.099 0V1ZM536.811 7.14655L536.015 7.75252C538.88 11.5137 540.337 16.1408 540.337 21.6934H541.337H542.337C542.337 15.7724 540.776 10.7016 537.606 6.54059L536.811 7.14655ZM541.337 21.6934H540.337C540.337 27.2452 538.88 31.9478 536.005 35.8522L536.811 36.4451L537.616 37.0381C540.776 32.747 542.337 27.6151 542.337 21.6934H541.337ZM536.811 36.4451L535.996 35.8652C533.226 39.7565 529.935 41.5917 526.099 41.5917V42.5917V43.5917C530.711 43.5917 534.562 41.3291 537.625 37.025L536.811 36.4451ZM526.099 42.5917V41.5917C522.259 41.5917 518.914 39.7529 516.042 35.8522L515.236 36.4451L514.431 37.0381C517.593 41.3327 521.49 43.5917 526.099 43.5917V42.5917ZM515.236 36.4451L516.042 35.8522C513.167 31.9478 511.71 27.2452 511.71 21.6934H510.71H509.71C509.71 27.6151 511.271 32.747 514.431 37.0381L515.236 36.4451ZM510.71 21.6934H511.71C511.71 16.1333 513.121 11.5014 515.891 7.7395L515.085 7.14655L514.28 6.5536C511.217 10.7139 509.71 15.78 509.71 21.6934H510.71ZM515.085 7.14655L515.891 7.7395C518.757 3.84644 522.151 2 526.099 2V1V0C521.397 0 517.448 2.25126 514.28 6.5536L515.085 7.14655ZM538.621 99.1399H537.621V249.935H538.621H539.621V99.1399H538.621ZM538.621 249.935H537.621C537.621 261.662 538.218 269.663 539.475 273.789L540.431 273.497L541.388 273.206C540.231 269.409 539.621 261.702 539.621 249.935H538.621ZM540.431 273.497L539.485 273.821C540.836 277.771 542.788 280.823 545.393 282.886L546.014 282.102L546.635 281.318C544.411 279.557 542.642 276.872 541.378 273.174L540.431 273.497ZM546.014 282.102L545.408 282.898C548.205 285.025 553.028 285.971 559.592 285.971V284.971V283.971C553.08 283.971 548.851 283.004 546.619 281.306L546.014 282.102ZM559.592 284.971H558.592V292.347H559.592H560.592V284.971H559.592ZM559.592 292.347V291.347H492.455V292.347V293.347H559.592V292.347ZM492.455 292.347H493.455V284.971H492.455H491.455V292.347H492.455ZM492.455 284.971V285.971C495.863 285.971 498.748 285.747 501.096 285.286C503.432 284.828 505.312 284.121 506.642 283.1L506.033 282.307L505.424 281.514C504.441 282.269 502.902 282.894 500.711 283.324C498.533 283.751 495.787 283.971 492.455 283.971V284.971ZM506.033 282.307L506.642 283.1C509.178 281.154 511.076 278.006 512.417 273.801L511.465 273.497L510.512 273.193C509.238 277.184 507.516 279.909 505.424 281.514L506.033 282.307ZM511.465 273.497L512.41 273.822C513.88 269.545 514.577 261.53 514.577 249.935H513.577H512.577C512.577 261.561 511.865 269.254 510.519 273.172L511.465 273.497ZM513.577 249.935H514.577V177.611H513.577H512.577V249.935H513.577ZM513.577 177.611H514.577C514.577 157.278 514.126 144.017 513.208 137.919L512.219 138.068L511.23 138.217C512.122 144.139 512.577 157.24 512.577 177.611H513.577ZM512.219 138.068L513.206 137.909C512.496 133.503 511.355 130.244 509.636 128.376L508.9 129.053L508.164 129.73C509.462 131.141 510.533 133.892 511.232 138.227L512.219 138.068ZM508.9 129.053L509.662 128.406C507.939 126.377 505.582 125.39 502.714 125.39V126.39V127.39C505.076 127.39 506.844 128.178 508.138 129.701L508.9 129.053ZM502.714 126.39V125.39C499.673 125.39 496.089 126.49 492.001 128.572L492.455 129.463L492.909 130.354C496.867 128.338 500.123 127.39 502.714 127.39V126.39ZM492.455 129.463L493.417 129.188L491.304 121.812L490.343 122.087L489.382 122.362L491.494 129.738L492.455 129.463ZM490.343 122.087L490.826 122.963L532.465 100.016L531.983 99.1399L531.5 98.2641L489.86 121.211L490.343 122.087ZM531.983 99.1399V100.14H538.621V99.1399V98.1399H531.983V99.1399ZM608.558 1H607.558V187.855H608.558H609.558V1H608.558ZM608.558 187.855L609.337 188.482L644.489 144.842L643.71 144.215L642.931 143.587L607.779 187.228L608.558 187.855ZM643.71 144.215L644.491 144.84C648.216 140.191 651.167 136.389 653.341 133.436C655.499 130.506 656.934 128.356 657.583 127.035L656.685 126.595L655.787 126.154C655.228 127.292 653.897 129.308 651.731 132.251C649.58 135.172 646.647 138.95 642.93 143.589L643.71 144.215ZM656.685 126.595L657.583 127.035C658.447 125.275 658.892 123.486 658.892 121.677H657.892H656.892C656.892 123.147 656.532 124.636 655.787 126.154L656.685 126.595ZM657.892 121.677H658.892C658.892 118.717 657.958 116.153 656.073 114.045L655.327 114.711L654.582 115.378C656.116 117.094 656.892 119.174 656.892 121.677H657.892ZM655.327 114.711L656.113 114.094C654.262 111.736 651.221 110.514 647.251 110.231L647.18 111.228L647.109 112.226C650.783 112.488 653.174 113.589 654.541 115.329L655.327 114.711ZM647.18 111.228H648.18V104.672H647.18H646.18V111.228H647.18ZM647.18 104.672V105.672H707.226V104.672V103.672H647.18V104.672ZM707.226 104.672H706.226V111.228H707.226H708.226V104.672H707.226ZM707.226 111.228L707.193 110.229C698.83 110.506 691.771 112.239 686.063 115.481L686.557 116.35L687.051 117.22C692.406 114.178 699.127 112.497 707.259 112.228L707.226 111.228ZM686.557 116.35L686.056 115.485C680.473 118.714 674.398 124.421 667.827 132.521L668.604 133.151L669.38 133.781C675.884 125.763 681.779 120.269 687.058 117.216L686.557 116.35ZM668.604 133.151L667.822 132.527L632.367 176.987L633.149 177.611L633.931 178.234L669.385 133.774L668.604 133.151ZM633.149 177.611L632.285 178.114L667.739 238.965L668.604 238.462L669.468 237.958L634.013 177.107L633.149 177.611ZM668.604 238.462L667.741 238.968C677.59 255.755 684.259 266.464 687.722 271.028L688.518 270.424L689.315 269.819C685.938 265.369 679.331 254.77 669.466 237.956L668.604 238.462ZM688.518 270.424L687.719 271.025C692.566 277.47 696.9 281.786 700.724 283.806L701.191 282.922L701.658 282.038C698.241 280.233 694.126 276.217 689.317 269.823L688.518 270.424ZM701.191 282.922L700.714 283.801C703.467 285.296 708.067 285.971 714.317 285.971V284.971V283.971C708.095 283.971 703.944 283.279 701.669 282.043L701.191 282.922ZM714.317 284.971H713.317V292.347H714.317H715.317V284.971H714.317ZM714.317 292.347V291.347H647.18V292.347V293.347H714.317V292.347ZM647.18 292.347H648.18V284.971H647.18H646.18V292.347H647.18ZM647.18 284.971L647.216 285.97C651.069 285.832 653.997 285.08 655.597 283.408L654.874 282.717L654.152 282.025C653.137 283.086 650.935 283.836 647.144 283.971L647.18 284.971ZM654.874 282.717L655.604 283.401C657.228 281.668 657.987 279.351 657.987 276.57H656.987H655.987C655.987 278.981 655.337 280.761 654.145 282.033L654.874 282.717ZM656.987 276.57H657.987C657.987 274.813 657.43 272.625 656.407 270.054C655.377 267.466 653.843 264.416 651.818 260.909L650.952 261.409L650.086 261.909C652.084 265.368 653.567 268.327 654.549 270.794C655.537 273.276 655.987 275.187 655.987 276.57H656.987ZM650.952 261.409L651.818 260.91L609.424 187.356L608.558 187.855L607.691 188.355L650.085 261.908L650.952 261.409ZM608.558 187.855H607.558V250.14H608.558H609.558V187.855H608.558ZM608.558 250.14H607.558C607.558 256.232 607.709 261.296 608.013 265.326C608.316 269.338 608.775 272.386 609.415 274.413L610.368 274.112L611.322 273.811C610.754 272.013 610.308 269.154 610.008 265.175C609.708 261.214 609.558 256.205 609.558 250.14H608.558ZM610.368 274.112L609.422 274.435C610.77 278.377 612.678 281.321 615.221 283.123L615.799 282.307L616.378 281.491C614.295 280.015 612.582 277.496 611.314 273.788L610.368 274.112ZM615.799 282.307L615.221 283.123C616.56 284.072 618.571 284.735 621.132 285.187C623.717 285.644 626.968 285.902 630.869 285.971L630.886 284.971L630.904 283.971C627.06 283.903 623.924 283.649 621.48 283.218C619.013 282.782 617.352 282.182 616.378 281.491L615.799 282.307ZM630.886 284.971H629.886V292.347H630.886H631.886V284.971H630.886ZM630.886 292.347V291.347H560.581V292.347V293.347H630.886V292.347ZM560.581 292.347H561.581V284.971H560.581H559.581V292.347H560.581ZM560.581 284.971V285.971C567.7 285.971 573.213 284.803 576.973 282.322L576.423 281.488L575.872 280.653C572.592 282.817 567.544 283.971 560.581 283.971V284.971ZM576.423 281.488L577.002 282.302C579.325 280.65 581.038 278.134 582.194 274.854L581.251 274.522L580.307 274.189C579.25 277.192 577.745 279.32 575.843 280.673L576.423 281.488ZM581.251 274.522L582.199 274.839C583.764 270.163 584.514 262.231 584.514 251.165H583.514H582.514C582.514 262.226 581.754 269.866 580.302 274.204L581.251 274.522ZM583.514 251.165H584.514V80.2905H583.514H582.514V251.165H583.514ZM583.514 80.2905H584.514C584.514 58.6059 584.164 45.268 583.447 40.3971L582.457 40.5428L581.468 40.6885C582.159 45.3789 582.514 58.5395 582.514 80.2905H583.514ZM582.457 40.5428L583.447 40.4011C582.74 35.4586 581.554 31.8461 579.728 29.8319L578.987 30.5034L578.247 31.175C579.64 32.7122 580.767 35.7926 581.468 40.6846L582.457 40.5428ZM578.987 30.5034L579.753 29.8596C577.943 27.7098 575.545 26.6351 572.651 26.6351V27.6351V28.6351C574.987 28.6351 576.813 29.4726 578.222 31.1473L578.987 30.5034ZM572.651 27.6351V26.6351C570.26 26.6351 566.893 27.9177 562.665 30.2418L563.146 31.1181L563.628 31.9944C567.849 29.6745 570.818 28.6351 572.651 28.6351V27.6351ZM563.146 31.1181L564.088 30.7813L561.523 23.6104L560.581 23.9471L559.64 24.2839L562.205 31.4549L563.146 31.1181ZM560.581 23.9471L561.07 24.8199L602.106 1.87281L601.618 1L601.13 0.127193L560.093 23.0743L560.581 23.9471ZM601.618 1V2H608.558V1V0H601.618V1ZM152.94 623.441V622.441H1.31677V623.441V624.441H152.94V623.441ZM1.31677 623.441L2.28008 623.709L4.39224 616.128L3.42894 615.86L2.46563 615.592L0.353465 623.172L1.31677 623.441ZM3.42894 615.86L3.46287 616.859C7.51096 616.722 10.9142 616.429 13.6622 615.976C16.3935 615.525 18.5499 614.905 20.056 614.072L19.5719 613.197L19.0878 612.322C17.8783 612.991 15.9863 613.565 13.3366 614.003C10.7036 614.437 7.39325 614.725 3.395 614.861L3.42894 615.86ZM19.5719 613.197L20.0749 614.061C24.4484 611.515 27.7099 608.17 29.8174 604.02L28.9258 603.567L28.0342 603.114C26.1184 606.887 23.1441 609.96 19.0689 612.332L19.5719 613.197ZM28.9258 603.567L29.8215 604.011C33.0008 597.605 36.3405 586.157 39.8608 569.766L38.8831 569.556L37.9054 569.346C34.3852 585.737 31.0866 596.963 28.03 603.122L28.9258 603.567ZM38.8831 569.556L39.8611 569.765L75.9188 400.734L74.9408 400.526L73.9628 400.317L37.9051 569.347L38.8831 569.556ZM74.9408 400.526L75.9181 400.738C78.9372 386.797 80.4668 376.464 80.4668 369.793H79.4668H78.4668C78.4668 376.235 76.979 386.39 73.9634 400.314L74.9408 400.526ZM79.4668 369.793H80.4668C80.4668 364.42 79.0049 360.11 75.9561 357.004L75.2425 357.705L74.5289 358.405C77.1125 361.037 78.4668 364.785 78.4668 369.793H79.4668ZM75.2425 357.705L75.9687 357.017C72.9501 353.829 67.3933 352.402 59.703 352.402V353.402V354.402C67.3008 354.402 72.1036 355.844 74.5163 358.392L75.2425 357.705ZM59.703 353.402V352.402C58.0122 352.402 56.7054 352.334 55.7641 352.206L55.6295 353.197L55.495 354.188C56.5653 354.334 57.9741 354.402 59.703 354.402V353.402ZM55.6295 353.197L56.6022 353.43L58.4126 345.849L57.44 345.617L56.4673 345.384L54.6569 352.965L55.6295 353.197ZM57.44 345.617V346.617H140.87V345.617V344.617H57.44V345.617ZM140.87 345.617L139.883 345.459L138.676 353.04L139.663 353.197L140.651 353.355L141.858 345.774L140.87 345.617ZM139.663 353.197V352.197C130.278 352.197 123.394 353.42 119.218 356.038L119.749 356.885L120.28 357.733C123.949 355.433 130.341 354.197 139.663 354.197V353.197ZM119.749 356.885L119.218 356.038C115.086 358.628 111.706 362.833 109.036 368.55L109.942 368.974L110.848 369.397C113.409 363.914 116.567 360.06 120.28 357.733L119.749 356.885ZM109.942 368.974L109.045 368.533C108.087 370.483 106.871 374.372 105.391 380.094C103.902 385.851 102.126 393.549 100.063 403.185L101.041 403.394L102.019 403.604C104.079 393.98 105.849 386.312 107.327 380.595C108.815 374.844 109.987 371.152 110.84 369.414L109.942 368.974ZM101.041 403.394L100.063 403.186L64.6089 569.347L65.5869 569.556L66.5649 569.765L102.019 403.603L101.041 403.394ZM65.5869 569.556L64.6095 569.345C61.8953 581.904 60.5134 590.743 60.5134 595.781H61.5134H62.5134C62.5134 590.985 63.8472 582.341 66.5643 569.767L65.5869 569.556ZM61.5134 595.781H60.5134C60.5134 599.362 62.0041 602.733 64.845 605.876L65.5869 605.206L66.3288 604.536C63.7384 601.669 62.5134 598.757 62.5134 595.781H61.5134ZM65.5869 605.206L64.8191 605.847C65.8582 607.092 67.476 607.938 69.5177 608.478C71.5681 609.02 74.139 609.279 77.2038 609.279V608.279V607.279C74.2338 607.279 71.8512 607.026 70.0293 606.544C68.1987 606.06 67.0254 605.369 66.3547 604.565L65.5869 605.206ZM77.2038 608.279V609.279H96.9676V608.279V607.279H77.2038V608.279ZM96.9676 608.279V609.279C111.449 609.279 123.061 606.806 131.718 601.768L131.215 600.903L130.712 600.039C122.471 604.835 111.251 607.279 96.9676 607.279V608.279ZM131.215 600.903L131.724 601.764C138.107 597.989 143.938 592.349 149.23 584.886L148.414 584.308L147.598 583.729C142.43 591.018 136.795 596.442 130.706 600.043L131.215 600.903ZM148.414 584.308L149.238 584.874C152.119 580.683 157.136 570.411 164.265 554.182L163.35 553.78L162.434 553.378C155.282 569.658 150.341 579.737 147.59 583.741L148.414 584.308ZM163.35 553.78L164.27 554.171L168.193 544.952L167.272 544.56L166.352 544.169L162.43 553.388L163.35 553.78ZM167.272 544.56V545.56H172.855V544.56V543.56H167.272V544.56ZM172.855 544.56L171.885 544.315L151.97 623.196L152.94 623.441L153.91 623.686L173.824 544.805L172.855 544.56ZM318.98 438.02L318.002 437.813L288.582 576.725L289.561 576.932L290.539 577.139L319.958 438.227L318.98 438.02ZM289.561 576.932L288.576 576.757L285.257 595.401L286.242 595.576L287.226 595.752L290.545 577.107L289.561 576.932ZM286.242 595.576L285.256 595.409C284.948 597.217 284.789 598.779 284.789 600.084H285.789H286.789C286.789 598.93 286.931 597.487 287.227 595.744L286.242 595.576ZM285.789 600.084H284.789C284.789 602.428 285.33 604.527 286.445 606.344L287.298 605.821L288.15 605.298C287.253 603.837 286.789 602.11 286.789 600.084H285.789ZM287.298 605.821L286.461 606.368C287.404 607.81 288.694 608.665 290.315 608.665V607.665V606.665C289.522 606.665 288.8 606.29 288.134 605.273L287.298 605.821ZM290.315 607.665V608.665C291.238 608.665 292.183 608.285 293.117 607.688C294.061 607.084 295.077 606.205 296.164 605.081L295.445 604.386L294.726 603.692C293.7 604.753 292.805 605.513 292.04 606.002C291.264 606.498 290.7 606.665 290.315 606.665V607.665ZM295.445 604.386L296.155 605.09C300.195 601.01 305.485 592.69 312.02 580.266L311.135 579.8L310.25 579.335C303.709 591.77 298.539 599.84 294.734 603.683L295.445 604.386ZM311.135 579.8L310.443 580.522L315.572 585.439L316.264 584.718L316.957 583.996L311.827 579.078L311.135 579.8ZM316.264 584.718L315.366 584.279C308.452 598.431 301.366 609.187 294.126 616.595L294.841 617.294L295.556 617.993C303.001 610.376 310.197 599.414 317.163 585.156L316.264 584.718ZM294.841 617.294L294.132 616.589C286.859 623.895 280.313 627.358 274.474 627.358V628.358V629.358C281.107 629.358 288.139 625.445 295.55 618L294.841 617.294ZM274.474 628.358V627.358C270.409 627.358 267.465 625.964 265.473 623.258L264.667 623.851L263.862 624.444C266.295 627.748 269.889 629.358 274.474 629.358V628.358ZM264.667 623.851L265.473 623.258C263.541 620.634 262.499 616.648 262.499 611.148H261.499H260.499C260.499 616.848 261.57 621.33 263.862 624.444L264.667 623.851ZM261.499 611.148H262.499C262.499 604.551 263.591 595.815 265.798 584.916L264.818 584.718L263.838 584.519C261.62 595.475 260.499 604.359 260.499 611.148H261.499ZM264.818 584.718L265.798 584.919L268.966 569.553L267.986 569.351L267.007 569.149L263.839 584.516L264.818 584.718ZM267.986 569.351L267.115 568.86C253.957 592.186 241.908 608.382 230.984 617.553L231.627 618.319L232.27 619.085C243.474 609.679 255.664 593.23 268.857 569.842L267.986 569.351ZM231.627 618.319L230.983 617.554C223.153 624.149 215.578 627.358 208.242 627.358V628.358V629.358C216.195 629.358 224.21 625.874 232.271 619.083L231.627 618.319ZM208.242 628.358V627.358C201.347 627.358 195.286 623.536 190.071 615.52L189.233 616.065L188.395 616.61C193.842 624.984 200.453 629.358 208.242 629.358V628.358ZM189.233 616.065L190.075 615.526C184.885 607.413 182.237 596.22 182.237 581.849H181.237H180.237C180.237 596.435 182.92 608.053 188.391 616.604L189.233 616.065ZM181.237 581.849H182.237C182.237 560.279 186.982 537.526 196.499 513.582L195.569 513.213L194.64 512.843C185.047 536.979 180.237 559.983 180.237 581.849H181.237ZM195.569 513.213L196.498 513.584C206.115 489.504 218.267 470.304 232.93 455.945L232.231 455.23L231.531 454.516C216.624 469.113 204.335 488.568 194.641 512.842L195.569 513.213ZM232.231 455.23L232.935 455.94C244.42 444.547 255.093 439.02 264.969 439.02V438.02V437.02C254.327 437.02 243.174 442.966 231.526 454.52L232.231 455.23ZM264.969 438.02V439.02C270.835 439.02 275.644 441.096 279.471 445.253L280.207 444.576L280.943 443.899C276.723 439.315 271.374 437.02 264.969 437.02V438.02ZM280.207 444.576L279.479 445.262C283.415 449.434 286.484 456.457 288.582 466.498L289.561 466.294L290.54 466.089C288.414 455.915 285.246 448.46 280.934 443.89L280.207 444.576ZM289.561 466.294L290.535 466.52L295.966 443.164L294.992 442.937L294.018 442.711L288.587 466.067L289.561 466.294ZM294.992 442.937L295.193 443.917L319.181 438.999L318.98 438.02L318.779 437.04L294.791 441.957L294.992 442.937ZM265.271 448.674V447.674C258.399 447.674 251.308 452.038 244.003 460.305L244.753 460.967L245.502 461.629C252.681 453.505 259.268 449.674 265.271 449.674V448.674ZM244.753 460.967L244.003 460.305C233.625 472.05 224.419 489.394 216.351 512.265L217.295 512.598L218.238 512.931C226.263 490.181 235.362 473.104 245.502 461.629L244.753 460.967ZM217.295 512.598L216.35 512.269C208.378 535.154 204.376 555.893 204.376 574.473H205.376H206.376C206.376 556.174 210.319 535.663 218.239 512.927L217.295 512.598ZM205.376 574.473H204.376C204.376 583.871 206.104 591.453 209.658 597.131L210.505 596.601L211.353 596.07C208.068 590.821 206.376 583.652 206.376 574.473H205.376ZM210.505 596.601L209.664 597.141C213.182 602.621 217.374 605.591 222.273 605.591V604.591V603.591C218.322 603.591 214.669 601.235 211.347 596.061L210.505 596.601ZM222.273 604.591V605.591C228.103 605.591 234.055 602.668 240.113 597.08C246.174 591.488 252.43 583.148 258.892 572.11L258.029 571.605L257.166 571.1C250.754 582.053 244.614 590.206 238.756 595.61C232.895 601.017 227.406 603.591 222.273 603.591V604.591ZM258.029 571.605L258.891 572.112C276.171 542.744 284.828 512.589 284.828 481.66H283.828H282.828C282.828 512.197 274.285 542.005 257.167 571.098L258.029 571.605ZM283.828 481.66H284.828C284.828 470.002 283.17 461.361 279.691 455.921L278.849 456.459L278.007 456.998C281.166 461.939 282.828 470.098 282.828 481.66H283.828ZM278.849 456.459L279.691 455.921C276.205 450.469 271.374 447.674 265.271 447.674V448.674V449.674C270.633 449.674 274.855 452.069 278.007 456.998L278.849 456.459ZM388.313 356.68V357.68C392.165 357.68 395.456 359.462 398.22 363.215L399.025 362.622L399.83 362.029C396.76 357.86 392.911 355.68 388.313 355.68V356.68ZM399.025 362.622L398.22 363.215C400.99 366.977 402.4 371.609 402.4 377.169H403.4H404.4C404.4 371.256 402.894 366.189 399.83 362.029L399.025 362.622ZM403.4 377.169H402.4C402.4 382.578 400.947 387.214 398.069 391.123L398.874 391.716L399.679 392.309C402.836 388.022 404.4 382.96 404.4 377.169H403.4ZM398.874 391.716L398.069 391.123C395.3 394.884 392.056 396.657 388.313 396.657V397.657V398.657C392.818 398.657 396.615 396.47 399.679 392.309L398.874 391.716ZM388.313 397.657V396.657C384.568 396.657 381.269 394.88 378.397 391.11L377.602 391.716L376.806 392.322C379.969 396.474 383.812 398.657 388.313 398.657V397.657ZM377.602 391.716L378.416 391.136C375.634 387.227 374.227 382.586 374.227 377.169H373.227H372.227C372.227 382.952 373.736 388.01 376.787 392.296L377.602 391.716ZM373.227 377.169H374.227C374.227 371.609 375.637 366.977 378.407 363.215L377.602 362.622L376.796 362.029C373.733 366.189 372.227 371.256 372.227 377.169H373.227ZM377.602 362.622L378.407 363.215C381.171 359.462 384.462 357.68 388.313 357.68V356.68V355.68C383.716 355.68 379.866 357.86 376.796 362.029L377.602 362.622ZM390.275 438.02L389.296 437.816L359.424 581.441L360.403 581.644L361.382 581.848L391.254 438.223L390.275 438.02ZM360.403 581.644L359.424 581.441C358.417 586.295 357.66 590.183 357.154 593.101C356.654 595.987 356.385 598.002 356.385 599.059H357.385H358.385C358.385 598.204 358.619 596.361 359.125 593.442C359.625 590.555 360.377 586.692 361.382 581.847L360.403 581.644ZM357.385 599.059H356.385C356.385 601.377 356.865 603.363 357.91 604.939L358.743 604.386L359.577 603.834C358.811 602.678 358.385 601.113 358.385 599.059H357.385ZM358.743 604.386L357.938 604.979C359.071 606.518 360.497 607.435 362.213 607.435V606.435V605.435C361.315 605.435 360.427 604.987 359.548 603.794L358.743 604.386ZM362.213 606.435V607.435C364.163 607.435 366.229 606.061 368.363 603.852L367.644 603.157L366.925 602.462C364.835 604.625 363.28 605.435 362.213 605.435V606.435ZM367.644 603.157L368.376 603.839C374.195 597.6 380.027 588.771 385.883 577.389L384.994 576.932L384.105 576.474C378.294 587.767 372.56 596.421 366.913 602.475L367.644 603.157ZM384.994 576.932L384.328 577.678L389.609 582.39L390.275 581.644L390.941 580.898L385.66 576.186L384.994 576.932ZM390.275 581.644L389.374 581.21C382.572 595.338 374.582 607.199 365.412 616.809L366.136 617.499L366.859 618.189C376.196 608.404 384.299 596.361 391.176 582.078L390.275 581.644ZM366.136 617.499L365.409 616.812C358.649 623.968 352.357 627.358 346.523 627.358V628.358V629.358C353.16 629.358 359.944 625.509 366.863 618.186L366.136 617.499ZM346.523 628.358V627.358C342.709 627.358 339.625 625.862 337.196 622.817L336.415 623.441L335.633 624.064C338.434 627.576 342.089 629.358 346.523 629.358V628.358ZM336.415 623.441L337.208 622.833C334.749 619.622 333.492 615.612 333.492 610.738H332.492H331.492C331.492 615.972 332.85 620.43 335.621 624.049L336.415 623.441ZM332.492 610.738H333.492C333.492 605.8 334.727 597.492 337.242 585.746L336.264 585.537L335.286 585.328C332.771 597.075 331.492 605.568 331.492 610.738H332.492ZM336.264 585.537L337.242 585.746L356.855 493.958L355.877 493.749L354.899 493.54L335.286 585.328L336.264 585.537ZM355.877 493.749L356.854 493.958C358.465 486.439 359.675 480.311 360.483 475.58C361.287 470.87 361.704 467.481 361.704 465.474H360.704H359.704C359.704 467.292 359.317 470.528 358.512 475.243C357.71 479.936 356.507 486.033 354.899 493.539L355.877 493.749ZM360.704 465.474H361.704C361.704 462.284 360.846 459.582 359.056 457.455L358.291 458.099L357.525 458.742C358.954 460.44 359.704 462.655 359.704 465.474H360.704ZM358.291 458.099L359.076 457.479C357.354 455.297 354.936 454.23 351.954 454.23V455.23V456.23C354.404 456.23 356.21 457.076 357.505 458.718L358.291 458.099ZM351.954 455.23V454.23C349.615 454.23 344.93 455.009 338.013 456.507L338.225 457.484L338.437 458.461C345.4 456.954 349.868 456.23 351.954 456.23V455.23ZM338.225 457.484H339.225V449.493H338.225H337.225V457.484H338.225ZM338.225 449.493L338.44 450.47L390.49 438.996L390.275 438.02L390.059 437.043L338.01 448.517L338.225 449.493ZM464.134 438.02L463.156 437.809L443.091 531.032L444.068 531.243L445.046 531.453L465.112 438.23L464.134 438.02ZM444.068 531.243L444.965 531.685C463.779 493.566 478.115 468.605 487.987 456.688L487.217 456.05L486.447 455.412C476.404 467.535 461.975 492.702 443.172 530.8L444.068 531.243ZM487.217 456.05L487.984 456.691C497.979 444.746 507.38 439.02 516.184 439.02V438.02V437.02C506.481 437.02 496.571 443.313 486.45 455.408L487.217 456.05ZM516.184 438.02V439.02C520.853 439.02 524.688 441.087 527.741 445.362L528.555 444.781L529.369 444.2C525.985 439.461 521.572 437.02 516.184 437.02V438.02ZM528.555 444.781L527.75 445.374C530.91 449.665 532.534 455.313 532.534 462.401H533.534H534.534C534.534 455.011 532.839 448.912 529.36 444.188L528.555 444.781ZM533.534 462.401H532.534C532.534 470.494 531.091 481.343 528.181 494.974L529.158 495.183L530.136 495.392C533.059 481.705 534.534 470.699 534.534 462.401H533.534ZM529.158 495.183L528.18 494.974L509.775 581.231L510.752 581.439L511.73 581.648L530.136 495.391L529.158 495.183ZM510.752 581.439L509.774 581.232C508.717 586.223 507.922 590.249 507.391 593.305C506.865 596.334 506.584 598.482 506.584 599.674H507.584H508.584C508.584 598.681 508.832 596.697 509.362 593.648C509.887 590.626 510.676 586.627 511.731 581.647L510.752 581.439ZM507.584 599.674H506.584C506.584 601.728 507.017 603.55 507.93 605.099L508.791 604.591L509.653 604.084C508.956 602.901 508.584 601.445 508.584 599.674H507.584ZM508.791 604.591L507.954 605.139C508.826 606.47 509.943 607.435 511.356 607.435V606.435V605.435C510.958 605.435 510.366 605.171 509.628 604.044L508.791 604.591ZM511.356 606.435V607.435C512.204 607.435 513.051 607.125 513.875 606.624C514.702 606.12 515.561 605.39 516.451 604.465L515.731 603.772L515.011 603.078C514.192 603.929 513.466 604.531 512.835 604.915C512.201 605.301 511.715 605.435 511.356 605.435V606.435ZM515.731 603.772L516.464 604.453C521.879 598.625 527.759 589.798 534.112 578.021L533.232 577.547L532.352 577.072C526.032 588.788 520.245 597.445 514.999 603.091L515.731 603.772ZM533.232 577.547L532.592 578.315L537.269 582.208L537.909 581.439L538.549 580.671L533.872 576.778L533.232 577.547ZM537.909 581.439L537.02 580.982C527.684 599.113 518.896 611.968 510.674 619.636L511.356 620.368L512.038 621.099C520.512 613.196 529.426 600.098 538.798 581.897L537.909 581.439ZM511.356 620.368L510.682 619.629C504.912 624.898 499.917 627.358 495.666 627.358V628.358V629.358C500.667 629.358 506.133 626.491 512.03 621.106L511.356 620.368ZM495.666 628.358V627.358C492.282 627.358 489.615 625.956 487.582 623.07L486.764 623.646L485.947 624.222C488.34 627.619 491.606 629.358 495.666 629.358V628.358ZM486.764 623.646L487.57 623.053C485.524 620.275 484.445 616.411 484.445 611.353H483.445H482.445C482.445 616.675 483.579 621.006 485.959 624.239L486.764 623.646ZM483.445 611.353H484.445C484.445 604.914 486.132 593.74 489.553 577.756L488.575 577.547L487.597 577.337C484.178 593.315 482.445 604.678 482.445 611.353H483.445ZM488.575 577.547L489.553 577.754L507.054 495.391L506.076 495.183L505.097 494.975L487.597 577.339L488.575 577.547ZM506.076 495.183L507.053 495.394C509.271 485.127 510.395 477.055 510.395 471.211H509.395H508.395C508.395 476.841 507.306 484.75 505.098 494.972L506.076 495.183ZM509.395 471.211H510.395C510.395 468.322 509.702 465.895 508.215 464.031L507.433 464.655L506.652 465.278C507.78 466.693 508.395 468.637 508.395 471.211H509.395ZM507.433 464.655L508.239 464.062C506.776 462.075 504.886 460.991 502.606 460.991V461.991V462.991C504.147 462.991 505.476 463.683 506.628 465.248L507.433 464.655ZM502.606 461.991V460.991C499.428 460.991 495.828 462.822 491.856 466.141L492.497 466.909L493.139 467.676C497.011 464.439 500.151 462.991 502.606 462.991V461.991ZM492.497 466.909L491.861 466.138C484.28 472.397 476.464 482.695 468.393 496.944L469.264 497.436L470.134 497.929C478.156 483.767 485.829 473.713 493.134 467.68L492.497 466.909ZM469.264 497.436L468.396 496.94C460.32 511.06 451.802 529.134 442.841 551.149L443.767 551.526L444.693 551.903C453.635 529.936 462.115 511.95 470.132 497.933L469.264 497.436ZM443.767 551.526L442.841 551.149C438.09 562.816 434.152 575.572 431.024 589.414L431.999 589.635L432.974 589.855C436.082 576.106 439.989 563.457 444.693 551.903L443.767 551.526ZM431.999 589.635L431.023 589.417L423.48 623.223L424.456 623.441L425.432 623.659L432.975 589.853L431.999 589.635ZM424.456 623.441V622.441H401.825V623.441V624.441H424.456V623.441ZM401.825 623.441L402.803 623.65L430.261 495.392L429.283 495.183L428.305 494.973L400.847 623.231L401.825 623.441ZM429.283 495.183L430.262 495.387C431.873 487.665 433.082 481.472 433.889 476.811C434.692 472.182 435.111 468.99 435.111 467.318H434.111H433.111C433.111 468.789 432.726 471.811 431.919 476.47C431.117 481.098 429.913 487.266 428.304 494.979L429.283 495.183ZM434.111 467.318H435.111C435.111 464.095 434.134 461.271 432.166 458.895L431.395 459.533L430.625 460.171C432.278 462.166 433.111 464.532 433.111 467.318H434.111ZM431.395 459.533L432.201 458.94C430.325 456.392 427.877 455.05 424.908 455.05V456.05V457.05C427.169 457.05 429.046 458.029 430.59 460.126L431.395 459.533ZM424.908 456.05V455.05C423.601 455.05 421.407 455.34 418.393 455.885L418.572 456.869L418.75 457.853C421.771 457.306 423.802 457.05 424.908 457.05V456.05ZM418.572 456.869L418.362 455.891L412.629 457.121L412.839 458.099L413.048 459.076L418.781 457.847L418.572 456.869ZM412.839 458.099L413.831 457.977L412.926 450.601L411.933 450.723L410.941 450.844L411.846 458.22L412.839 458.099ZM411.933 450.723L412.17 451.694L464.37 438.991L464.134 438.02L463.898 437.048L411.697 449.751L411.933 450.723ZM702.139 450.723L701.159 450.522L696.784 471.83L697.763 472.031L698.743 472.232L703.118 450.924L702.139 450.723ZM697.763 472.031V471.031H672.568V472.031V473.031H697.763V472.031ZM672.568 472.031L671.6 472.282C673.494 479.59 674.435 486.403 674.435 492.724H675.435H676.435C676.435 486.206 675.465 479.223 673.536 471.78L672.568 472.031ZM675.435 492.724H674.435C674.435 510.527 668.88 526.356 657.757 540.247L658.538 540.872L659.318 541.497C670.725 527.251 676.435 510.981 676.435 492.724H675.435ZM658.538 540.872L657.76 540.244C646.586 554.076 631.262 561.748 611.693 563.232L611.768 564.229L611.844 565.226C631.903 563.705 647.759 555.806 659.315 541.501L658.538 540.872ZM611.768 564.229L611.389 563.304C600.643 567.709 592.498 572.974 587.032 579.137L587.78 579.8L588.528 580.464C593.723 574.607 601.57 569.491 612.148 565.154L611.768 564.229ZM587.78 579.8L587.044 579.123C584.912 581.44 583.763 583.924 583.763 586.561H584.763H585.763C585.763 584.554 586.625 582.532 588.516 580.478L587.78 579.8ZM584.763 586.561H583.763C583.763 589.534 584.754 592.274 586.69 594.757L587.478 594.142L588.267 593.527C586.582 591.366 585.763 589.053 585.763 586.561H584.763ZM587.478 594.142L586.708 594.78C587.749 596.036 589.497 597.221 591.827 598.369C594.177 599.526 597.208 600.687 600.906 601.857L601.207 600.903L601.509 599.95C597.864 598.797 594.937 597.671 592.71 596.574C590.463 595.468 589.018 594.434 588.248 593.504L587.478 594.142ZM601.207 600.903L600.907 601.857L630.176 611.077L630.476 610.123L630.776 609.169L601.508 599.95L601.207 600.903ZM630.476 610.123L630.171 611.076C646.321 616.252 656.772 622.319 661.806 629.156L662.611 628.563L663.416 627.97C657.99 620.601 647.017 614.375 630.781 609.171L630.476 610.123ZM662.611 628.563L661.795 629.141C666.797 636.201 669.305 644.328 669.305 653.559H670.305H671.305C671.305 643.941 668.684 635.404 663.427 627.985L662.611 628.563ZM670.305 653.559H669.305C669.305 664.565 666.295 674.617 660.268 683.74L661.102 684.292L661.937 684.843C668.181 675.39 671.305 664.954 671.305 653.559H670.305ZM661.102 684.292L660.264 683.747C654.351 692.847 645.614 699.97 633.995 705.095L634.399 706.009L634.802 706.924C646.718 701.668 655.784 694.313 661.941 684.836L661.102 684.292ZM634.399 706.009L633.983 705.1C622.46 710.361 609.679 713 595.625 713V714V715C609.935 715 623.003 712.312 634.814 706.919L634.399 706.009ZM595.625 714V713C583.264 713 572.027 710.97 561.9 706.925L561.529 707.853L561.158 708.782C571.549 712.933 583.043 715 595.625 715V714ZM561.529 707.853L561.889 706.921C551.759 703.009 544.618 697.724 540.341 691.124L539.502 691.668L538.663 692.211C543.237 699.27 550.781 704.776 561.169 708.786L561.529 707.853ZM539.502 691.668L540.341 691.124C536.007 684.435 533.864 677.587 533.864 670.564H532.864H531.864C531.864 678.02 534.146 685.241 538.663 692.211L539.502 691.668ZM532.864 670.564H533.864C533.864 664.859 535.28 658.854 538.149 652.538L537.239 652.125L536.329 651.711C533.364 658.235 531.864 664.523 531.864 670.564H532.864ZM537.239 652.125L538.152 652.534C540.923 646.351 544.422 641.274 548.638 637.279L547.951 636.553L547.263 635.828C542.83 640.028 539.188 645.332 536.326 651.716L537.239 652.125ZM547.951 636.553L548.642 637.276C551.308 634.728 558.95 628.62 571.641 618.908L571.034 618.114L570.426 617.32C557.771 627.004 550.024 633.188 547.26 635.83L547.951 636.553ZM571.034 618.114L571.762 617.429C567.282 612.667 565.094 607.508 565.094 601.928H564.094H563.094C563.094 608.094 565.532 613.726 570.305 618.799L571.034 618.114ZM564.094 601.928H565.094C565.094 596.715 567.013 591.099 570.965 585.06L570.128 584.513L569.292 583.965C565.198 590.22 563.094 596.213 563.094 601.928H564.094ZM570.128 584.513L570.959 585.07C574.943 579.131 583.413 572.465 596.566 565.102L596.078 564.229L595.589 563.356C582.391 570.745 573.561 577.601 569.298 583.955L570.128 584.513ZM596.078 564.229L596.329 563.261C585.507 560.455 576.91 554.321 570.505 544.821L569.676 545.38L568.847 545.939C575.517 555.834 584.521 562.266 595.827 565.197L596.078 564.229ZM569.676 545.38L570.509 544.827C564.183 535.296 561.02 524.699 561.02 513.008H560.02H559.02C559.02 525.083 562.294 536.067 568.843 545.933L569.676 545.38ZM560.02 513.008H561.02C561.02 493.847 567.174 476.722 579.503 461.599L578.728 460.967L577.953 460.335C565.338 475.808 559.02 493.377 559.02 513.008H560.02ZM578.728 460.967L579.501 461.602C591.872 446.548 608.278 439.02 628.816 439.02V438.02V437.02C607.715 437.02 590.729 444.789 577.955 460.332L578.728 460.967ZM628.816 438.02V439.02C636.28 439.02 642.32 440.035 646.983 442.014L647.373 441.093L647.764 440.173C642.771 438.054 636.44 437.02 628.816 437.02V438.02ZM647.373 441.093L646.983 442.014C651.678 444.006 656.254 447.14 660.709 451.442L661.404 450.723L662.099 450.003C657.502 445.564 652.725 442.278 647.764 440.173L647.373 441.093ZM661.404 450.723V451.723H702.139V450.723V449.723H661.404V450.723ZM649.787 482.89H650.787C650.787 471.836 648.499 463 643.809 456.49L642.998 457.074L642.187 457.659C646.549 463.714 648.787 472.089 648.787 482.89H649.787ZM642.998 457.074L643.816 456.498C639.216 449.968 633.087 446.649 625.497 446.649V447.649V448.649C632.391 448.649 637.929 451.614 642.181 457.65L642.998 457.074ZM625.497 447.649V446.649C613.565 446.649 603.895 454.858 596.383 470.575L597.285 471.006L598.187 471.438C605.56 456.012 614.699 448.649 625.497 448.649V447.649ZM597.285 471.006L596.382 470.577C588.977 486.143 585.271 502.407 585.271 519.359H586.271H587.271C587.271 502.71 590.908 486.739 598.188 471.436L597.285 471.006ZM586.271 519.359H585.271C585.271 530.025 587.669 538.848 592.545 545.752L593.362 545.175L594.179 544.598C589.601 538.116 587.271 529.729 587.271 519.359H586.271ZM593.362 545.175L592.545 545.752C597.414 552.645 603.426 556.214 610.561 556.214V555.214V554.214C604.219 554.214 598.765 551.09 594.179 544.598L593.362 545.175ZM610.561 555.214V556.214C616.16 556.214 621.505 554.128 626.576 550.052L625.95 549.272L625.323 548.493C620.538 552.339 615.624 554.214 610.561 554.214V555.214ZM625.95 549.272L626.569 550.058C631.738 545.987 636.049 540.395 639.521 533.322L638.623 532.882L637.725 532.441C634.358 539.301 630.22 544.636 625.331 548.487L625.95 549.272ZM638.623 532.882L639.521 533.322C642.993 526.249 645.731 517.276 647.753 506.43L646.77 506.247L645.787 506.063C643.786 516.798 641.092 525.582 637.725 532.441L638.623 532.882ZM646.77 506.247L647.753 506.43C649.765 495.636 650.787 487.771 650.787 482.89H649.787H648.787C648.787 487.57 647.798 495.276 645.787 506.063L646.77 506.247ZM577.521 623.441L576.994 622.591C568.708 627.731 562.395 634.346 558.082 642.434L558.964 642.905L559.847 643.375C563.982 635.619 570.04 629.258 578.048 624.291L577.521 623.441ZM558.964 642.905L558.077 642.443C553.892 650.484 551.779 658.427 551.779 666.262H552.779H553.779C553.779 658.798 555.789 651.17 559.851 643.367L558.964 642.905ZM552.779 666.262H551.779C551.779 675.525 554.89 683.235 561.133 689.311L561.831 688.594L562.528 687.878C556.701 682.207 553.779 675.028 553.779 666.262H552.779ZM561.831 688.594L561.131 689.309C570.029 698.021 582.993 702.297 599.85 702.297V701.297V700.297C583.314 700.297 570.932 696.105 562.53 687.88L561.831 688.594ZM599.85 701.297V702.297C614.392 702.297 626.862 698.912 637.212 692.093L636.662 691.258L636.111 690.423C626.144 696.99 614.073 700.297 599.85 700.297V701.297ZM636.662 691.258L637.2 692.1C647.694 685.394 653.05 676.564 653.05 665.647H652.05H651.05C651.05 675.765 646.148 684.009 636.123 690.415L636.662 691.258ZM652.05 665.647H653.05C653.05 660.06 651.04 654.791 647.098 649.861L646.317 650.486L645.536 651.11C649.239 655.741 651.05 660.58 651.05 665.647H652.05ZM646.317 650.486L647.106 649.871C643.18 644.828 635.623 640.863 624.708 637.843L624.441 638.807L624.175 639.771C634.984 642.761 642.011 646.582 645.528 651.1L646.317 650.486ZM624.441 638.807L624.707 637.843C618.808 636.214 603.2 631.103 577.842 622.494L577.521 623.441L577.2 624.388C602.534 632.989 618.206 638.122 624.175 639.771L624.441 638.807Z" fill="#0043E0" mask="url(#path-1-outside-1_254_5)"/>
</svg>
